<svg xmlns="http://www.w3.org/2000/svg" xmlns:xlink="http://www.w3.org/1999/xlink" viewBox="0 0 60 60"><defs><style>.cls-1{fill:#fff;}.cls-2,.cls-3,.cls-4{fill:none;}.cls-2{stroke:#fff;}.cls-2,.cls-4{stroke-linejoin:round;stroke-width:2px;}.cls-4{stroke:url(#New_Gradient_Swatch_27);}</style><linearGradient id="New_Gradient_Swatch_27" x1="12" y1="30" x2="48" y2="30" gradientUnits="userSpaceOnUse"><stop offset="0" stop-color="#7852ec"/><stop offset="0.26" stop-color="#0af"/><stop offset="0.47" stop-color="#49d278"/><stop offset="0.72" stop-color="#ffc856"/><stop offset="0.98" stop-color="#ee4941"/></linearGradient></defs><title>circle.random</title><g id="Layer_2" data-name="Layer 2"><g id="Layer_2-2" data-name="Layer 2"><ellipse class="cls-1" cx="27.44" cy="28.2" rx="1.7" ry="1.07" transform="translate(-0.8 55.61) rotate(-89.94)"/><ellipse class="cls-1" cx="24.9" cy="30.92" rx="1.7" ry="1.07" transform="translate(-6.05 55.79) rotate(-89.94)"/><ellipse class="cls-1" cx="22.34" cy="33.65" rx="1.7" ry="1.07" transform="translate(-11.33 55.95) rotate(-89.94)"/><path class="cls-2" d="M19.8,22.37,30,24.92l0,14.55-10.2-3.23Zm20.41,0L30,24.92l0,14.55,10.21-3.2ZM30,20.53,19.8,22.37,30,24.92l10.2-2.52Z"/><ellipse class="cls-1" cx="30.01" cy="22.73" rx="0.88" ry="1.94" transform="translate(7.24 52.72) rotate(-89.94)"/><ellipse class="cls-1" cx="33.31" cy="29.21" rx="1.7" ry="1.07" transform="translate(4.06 62.48) rotate(-89.94)"/><ellipse class="cls-1" cx="36.89" cy="32.66" rx="1.7" ry="1.07" transform="translate(4.18 69.52) rotate(-89.94)"/><g id="Layer_2-3" data-name="Layer 2"><g id="Layer_2-2-2" data-name="Layer 2-2"><rect class="cls-3" width="60" height="60"/></g></g><circle class="cls-4" cx="30" cy="30" r="17"/></g></g></svg>