<svg xmlns="http://www.w3.org/2000/svg" viewBox="0 0 14.92 14.92"><defs><style>.cls-1{fill:#ee4941;}.cls-2{fill:#fff;}</style></defs><title>error</title><g id="Layer_2" data-name="Layer 2"><g id="Layer_2-2" data-name="Layer 2"><rect class="cls-1" width="14.92" height="14.92" rx="7.46" ry="7.46"/><path class="cls-2" d="M6.83,8,6.65,5.29c0-.54-.05-.92-.05-1.15a1,1,0,0,1,.25-.74.83.83,0,0,1,.65-.27.66.66,0,0,1,.66.34,2.3,2.3,0,0,1,.17,1c0,.25,0,.51,0,.77L8,8a2.2,2.2,0,0,1-.17.77.45.45,0,0,1-.44.27A.44.44,0,0,1,7,8.82,2.77,2.77,0,0,1,6.83,8Zm.64,3.76a.9.9,0,0,1-.61-.22.77.77,0,0,1-.26-.63.82.82,0,0,1,.25-.61.85.85,0,0,1,.61-.25.86.86,0,0,1,.61.25.87.87,0,0,1,0,1.24A.87.87,0,0,1,7.47,11.79Z"/></g></g></svg>