<svg xmlns="http://www.w3.org/2000/svg" xmlns:xlink="http://www.w3.org/1999/xlink" viewBox="0 0 60 60"><defs><style>.cls-1,.cls-2,.cls-3,.cls-4,.cls-6,.cls-7{fill:none;}.cls-1,.cls-2,.cls-6,.cls-7{stroke:#0af;}.cls-1,.cls-2,.cls-4,.cls-6,.cls-7{stroke-miterlimit:10;}.cls-2{stroke-width:3px;}.cls-4{stroke:url(#linear-gradient);}.cls-5{fill:#0af;}.cls-6{stroke-width:2px;}.cls-7{stroke-width:4px;}</style><linearGradient id="linear-gradient" x1="11.97" y1="-2090.5" x2="47.94" y2="-2090.5" gradientTransform="matrix(1, 0, 0, -1, 0, -2069.15)" gradientUnits="userSpaceOnUse"><stop offset="0" stop-color="#46f1ff"/><stop offset="1" stop-color="#5fc0ff"/></linearGradient></defs><title>piano.on</title><g id="Layer_2" data-name="Layer 2"><g id="Layer_2-2" data-name="Layer 2"><g id="Layer_2-3" data-name="Layer 2"><g id="Layer_2-2-2" data-name="Layer 2-2"><line class="cls-1" x1="19.3" y1="40.56" x2="19.3" y2="27.01"/><line class="cls-1" x1="26.38" y1="40.56" x2="26.38" y2="27.01"/><line class="cls-1" x1="33.47" y1="40.56" x2="33.47" y2="27.01"/><line class="cls-1" x1="40.55" y1="40.56" x2="40.55" y2="27.01"/><line class="cls-2" x1="19.3" y1="34.36" x2="19.3" y2="26.09"/><line class="cls-2" x1="26.38" y1="34.36" x2="26.38" y2="26.09"/><line class="cls-2" x1="33.47" y1="34.36" x2="33.47" y2="26.09"/><line class="cls-2" x1="40.55" y1="34.36" x2="40.55" y2="26.09"/><rect class="cls-3" width="60" height="60"/><rect class="cls-4" x="12.47" y="16.6" width="34.97" height="9.49"/><path class="cls-5" d="M46.7,17.55V39.44H13.3V17.55H46.7m2-2H11.3V41.44H48.7Z"/><line class="cls-6" x1="12.47" y1="26.09" x2="47.84" y2="26.09"/><line class="cls-1" x1="36.23" y1="22.74" x2="44.86" y2="22.74"/><line class="cls-1" x1="15.14" y1="22.74" x2="23.77" y2="22.74"/><line class="cls-1" x1="36.23" y1="19.86" x2="44.86" y2="19.86"/><line class="cls-1" x1="15.14" y1="19.86" x2="23.77" y2="19.86"/><line class="cls-7" x1="25.69" y1="21.3" x2="34.31" y2="21.3"/></g></g></g></g></svg>