<svg xmlns="http://www.w3.org/2000/svg" viewBox="0 0 60 60"><defs><style>.cls-1,.cls-2{fill:none;}.cls-2{stroke:#414956;stroke-linecap:round;stroke-linejoin:round;stroke-width:2px;}</style></defs><title>snow.off</title><g id="Layer_2" data-name="Layer 2"><g id="Layer_2-2" data-name="Layer 2"><rect class="cls-1" width="60" height="60"/><line class="cls-2" x1="10.96" y1="30" x2="30.23" y2="30"/><polyline class="cls-2" points="13.96 25.64 18.32 30 13.96 34.36"/><line class="cls-2" x1="49.04" y1="30" x2="29.77" y2="30"/><polyline class="cls-2" points="46.04 34.36 41.68 30 46.04 25.64"/><line class="cls-2" x1="20.71" y1="13.51" x2="30.34" y2="30.2"/><polyline class="cls-2" points="25.98 13.93 24.39 19.89 18.43 18.29"/><line class="cls-2" x1="39.74" y1="46.49" x2="30.11" y2="29.8"/><polyline class="cls-2" points="34.47 46.07 36.06 40.12 42.02 41.71"/><line class="cls-2" x1="20.71" y1="46.49" x2="30.34" y2="29.8"/><polyline class="cls-2" points="18.43 41.71 24.39 40.12 25.98 46.07"/><line class="cls-2" x1="39.74" y1="13.51" x2="30.11" y2="30.2"/><polyline class="cls-2" points="42.02 18.29 36.06 19.89 34.47 13.93"/><polygon class="cls-2" points="30.23 20.98 33.38 24.54 38.03 25.49 36.53 30 38.03 34.51 33.38 35.46 30.23 39.02 27.07 35.46 22.42 34.51 23.92 30 22.42 25.49 27.07 24.54 30.23 20.98"/></g></g></svg>