<svg xmlns="http://www.w3.org/2000/svg" viewBox="0 0 60 60"><defs><style>.cls-1,.cls-3,.cls-4{fill:none;}.cls-2{fill:#f5b05a;}.cls-3{stroke:#5684e2;stroke-linecap:round;}.cls-3,.cls-4{stroke-linejoin:round;}.cls-4{stroke:#f5b05a;stroke-linecap:square;stroke-width:2px;}</style></defs><title>sprinkler.on</title><g id="Layer_2" data-name="Layer 2"><g id="Layer_2-2" data-name="Layer 2"><rect class="cls-1" width="60" height="60"/><rect class="cls-2" x="10.08" y="11.76" width="39.83" height="2"/><rect class="cls-2" x="27.4" y="12.76" width="5.19" height="5.97"/><line class="cls-3" x1="50.16" y1="35.95" x2="46.29" y2="34.87"/><line class="cls-3" x1="42.02" y1="33.68" x2="38.14" y2="32.59"/><line class="cls-3" x1="46.37" y1="41.1" x2="43.22" y2="39.02"/><line class="cls-3" x1="39.75" y1="36.73" x2="36.61" y2="34.66"/><line class="cls-3" x1="40.63" y1="44.96" x2="38.59" y2="42.15"/><line class="cls-3" x1="36.34" y1="39.03" x2="34.3" y2="36.22"/><line class="cls-3" x1="33.6" y1="47.05" x2="32.93" y2="43.83"/><line class="cls-3" x1="32.18" y1="40.27" x2="31.5" y2="37.05"/><line class="cls-3" x1="26.16" y1="47.13" x2="26.91" y2="43.9"/><line class="cls-3" x1="27.74" y1="40.32" x2="28.49" y2="37.09"/><line class="cls-3" x1="19.18" y1="45.18" x2="21.28" y2="42.32"/><line class="cls-3" x1="23.6" y1="39.16" x2="25.7" y2="36.3"/><line class="cls-3" x1="13.53" y1="41.44" x2="16.71" y2="39.3"/><line class="cls-3" x1="20.24" y1="36.94" x2="23.42" y2="34.79"/><line class="cls-3" x1="9.84" y1="36.38" x2="13.73" y2="35.21"/><line class="cls-3" x1="18.04" y1="33.93" x2="21.93" y2="32.77"/><path class="cls-4" d="M24.19,18.73H35.81a0,0,0,0,1,0,0v6.45a5.17,5.17,0,0,1-5.17,5.17H29.36a5.17,5.17,0,0,1-5.17-5.17V18.73A0,0,0,0,1,24.19,18.73Z" transform="translate(60 49.08) rotate(180)"/></g></g></svg>