<svg xmlns="http://www.w3.org/2000/svg" viewBox="0 0 56 56"><defs><style>.cls-1{fill:none;}.cls-2{fill:#414956;}</style></defs><title>thermostat.off</title><g id="Layer_2" data-name="Layer 2"><g id="Layer_2-2" data-name="Layer 2"><rect class="cls-1" width="56" height="56"/><path class="cls-2" d="M24.84,25h.28V23.53c0-.4,0-.72,0-.94a1.32,1.32,0,0,1,.18-.59,1,1,0,0,1,.42-.41,1.14,1.14,0,0,1,.61-.17,1.21,1.21,0,0,1,.85.36,1.09,1.09,0,0,1,.33.58,6,6,0,0,1,.06,1V25h.92a1.13,1.13,0,0,1,.8.26.8.8,0,0,1,.28.64.71.71,0,0,1-.4.7,2.6,2.6,0,0,1-1.13.2H27.6v4.57a6.64,6.64,0,0,0,0,.9.85.85,0,0,0,.22.51.73.73,0,0,0,.57.2,3.31,3.31,0,0,0,.6-.08,3.13,3.13,0,0,1,.58-.08.75.75,0,0,1,.54.24.81.81,0,0,1,.24.6,1,1,0,0,1-.65.92,4.5,4.5,0,0,1-1.89.32,3.27,3.27,0,0,1-1.77-.39,1.86,1.86,0,0,1-.79-1.09,7.57,7.57,0,0,1-.18-1.85V26.82h-.33a1.19,1.19,0,0,1-.82-.26.86.86,0,0,1,0-1.28A1.3,1.3,0,0,1,24.84,25Z"/><path class="cls-2" d="M36.21,25.66a3.36,3.36,0,0,1-.21,1.2,2.54,2.54,0,0,1-1.49,1.54,3.29,3.29,0,0,1-1.2.21,3.14,3.14,0,0,1-1.18-.21,2.67,2.67,0,0,1-1.5-1.54,3.7,3.7,0,0,1,0-2.4,2.71,2.71,0,0,1,.58-.94,2.53,2.53,0,0,1,.92-.6,3.18,3.18,0,0,1,1.18-.21,3.29,3.29,0,0,1,1.2.22,2.71,2.71,0,0,1,.92.6,2.81,2.81,0,0,1,.58.94A3.5,3.5,0,0,1,36.21,25.66Zm-1.46,0a2.18,2.18,0,0,0-.39-1.38,1.26,1.26,0,0,0-1-.49,1.3,1.3,0,0,0-.75.22,1.4,1.4,0,0,0-.5.65,2.79,2.79,0,0,0-.17,1,2.59,2.59,0,0,0,.17,1,1.5,1.5,0,0,0,.49.65,1.31,1.31,0,0,0,.76.22,1.26,1.26,0,0,0,1-.49A2.2,2.2,0,0,0,34.75,25.66Z"/><path class="cls-2" d="M28.08,43.45H28l-.79,0,.14-2.63c.25,0,.49,0,.74,0l.65,0,.15,2.63Zm-2.53-.19a14.46,14.46,0,0,1-1.64-.36l.7-2.53a12,12,0,0,0,1.35.29Zm5,0-.42-2.59q.69-.12,1.35-.3l.71,2.53A14.46,14.46,0,0,1,30.53,43.24Zm-8.21-.86a14.86,14.86,0,0,1-1.51-.7L22,39.35a11.08,11.08,0,0,0,1.26.58Zm11.43,0-1-2.44A11.78,11.78,0,0,0,34,39.32l1.24,2.32A13.94,13.94,0,0,1,33.75,42.34ZM19.37,40.82c-.46-.31-.9-.65-1.33-1l1.69-2c.36.29.72.57,1.11.83Zm17.33,0L35.22,38.6a12.78,12.78,0,0,0,1.1-.84l1.7,2A14.4,14.4,0,0,1,36.7,40.77Zm-19.88-2.1a14.6,14.6,0,0,1-1.09-1.27l2.09-1.6a11.31,11.31,0,0,0,.9,1.05Zm22.42-.06L37.33,36.8a11.21,11.21,0,0,0,.89-1l2.1,1.58A14.9,14.9,0,0,1,39.24,38.61ZM14.79,36a16.21,16.21,0,0,1-.8-1.48l2.39-1.11A11.91,11.91,0,0,0,17,34.66ZM41.26,36,39,34.6a12.06,12.06,0,0,0,.65-1.23L42,34.47C41.8,35,41.54,35.47,41.26,36ZM13.37,33c-.18-.53-.33-1.07-.46-1.62l2.57-.57a11.92,11.92,0,0,0,.38,1.33Zm29.29-.09-2.5-.83a12,12,0,0,0,.37-1.34l2.57.56A16.55,16.55,0,0,1,42.66,32.92Zm-30-3.18a15.1,15.1,0,0,1-.1-1.66h2.63a12.62,12.62,0,0,0,.08,1.38Zm30.73-.08-2.61-.28A12.81,12.81,0,0,0,40.83,28l1.87-.11.76.06A15.68,15.68,0,0,1,43.37,29.66Zm-28.14-3-2.61-.26a14.73,14.73,0,0,1,.26-1.66l2.57.55A12.22,12.22,0,0,0,15.23,26.68Zm25.51-.22c-.06-.46-.14-.92-.24-1.36l2.56-.6a15,15,0,0,1,.29,1.65ZM15.81,24l-2.5-.82a15.31,15.31,0,0,1,.61-1.56l2.4,1.09Q16,23.31,15.81,24Zm24.3-.21a11.83,11.83,0,0,0-.52-1.28L42,21.35a14,14,0,0,1,.64,1.55ZM17,21.45,14.7,20.11a15.91,15.91,0,0,1,.92-1.39l2.11,1.58A11,11,0,0,0,17,21.45Zm22-.19q-.36-.59-.78-1.14l2.07-1.61a15.93,15.93,0,0,1,.95,1.37Zm-20.3-2-1.91-1.79a14.5,14.5,0,0,1,1.19-1.16l1.73,2A13,13,0,0,0,18.62,19.23Zm18.61-.15a11.47,11.47,0,0,0-1-.95l1.68-2a14.57,14.57,0,0,1,1.23,1.13ZM20.72,17.42l-1.49-2.16a13.84,13.84,0,0,1,1.42-.87L21.9,16.7A12.81,12.81,0,0,0,20.72,17.42Zm14.37-.12a12.88,12.88,0,0,0-1.19-.71l1.21-2.33a14.17,14.17,0,0,1,1.45.86ZM23.16,16.11l-1-2.44c.52-.21,1-.39,1.58-.55l.73,2.53A11.26,11.26,0,0,0,23.16,16.11ZM32.64,16c-.43-.16-.87-.31-1.32-.43L32,13.05c.54.15,1.07.32,1.59.52Zm-6.82-.67-.45-2.6c.55-.09,1.1-.15,1.66-.19l.16,2.63A10.45,10.45,0,0,0,25.82,15.35Zm4.15,0c-.46-.07-.92-.11-1.39-.14l.12-2.62a15.05,15.05,0,0,1,1.66.16Z"/></g></g></svg>