<svg xmlns="http://www.w3.org/2000/svg" xmlns:xlink="http://www.w3.org/1999/xlink" viewBox="0 0 32 32"><defs><style>.cls-1{fill:none;}.cls-2{fill:url(#linear-gradient);}.cls-3{fill:url(#linear-gradient-2);}.cls-4{fill:#2c98bc;}</style><linearGradient id="linear-gradient" x1="13.18" y1="21.04" x2="6.46" y2="14.32" gradientUnits="userSpaceOnUse"><stop offset="0" stop-color="#46f2ff"/><stop offset="1" stop-color="#5fc1ff"/></linearGradient><linearGradient id="linear-gradient-2" x1="24.62" y1="23.55" x2="12.53" y2="11.46" xlink:href="#linear-gradient"/></defs><title>hum</title><g id="Layer_2" data-name="Layer 2"><g id="Layer_2-2" data-name="Layer 2"><rect class="cls-1" width="32" height="32"/><path class="cls-2" d="M10.59,22.22a3.19,3.19,0,0,1-.54.05,3.39,3.39,0,0,1-3.39-3.39c0-1.45,2.17-4.85,3.39-6.59.34.49.76,1.11,1.18,1.77.17-.34.35-.67.54-1-.63-1-1.17-1.72-1.32-1.91a.51.51,0,0,0-.8,0c-.41.55-4,5.48-4,7.74a4.4,4.4,0,0,0,4.39,4.39,4.34,4.34,0,0,0,1-.13A8.11,8.11,0,0,1,10.59,22.22Z"/><path class="cls-3" d="M18.57,26.38A7.79,7.79,0,0,1,10.8,18.6c0-4.15,7.09-12.45,7.39-12.8a.52.52,0,0,1,.76,0c.3.35,7.39,8.65,7.39,12.8A7.78,7.78,0,0,1,18.57,26.38Zm0-19.48c-1.48,1.79-6.77,8.43-6.77,11.7a6.77,6.77,0,1,0,13.54,0C25.34,15.33,20.05,8.69,18.57,6.9Z"/><polygon class="cls-4" points="21.85 15.11 16.82 21.18 15.3 21.18 20.32 15.11 21.85 15.11"/><path class="cls-4" d="M17.82,14.58A1.89,1.89,0,0,0,16.4,14a2,2,0,0,0-2,2,2,2,0,0,0,2,2,1.93,1.93,0,0,0,1.42-.59A2,2,0,0,0,18.4,16,2,2,0,0,0,17.82,14.58Zm-.63,2.2A1.11,1.11,0,0,1,15.3,16a1.11,1.11,0,1,1,2.21,0A1.06,1.06,0,0,1,17.19,16.78Z"/><path class="cls-4" d="M22.16,19a2,2,0,1,0-2.84,2.84,2,2,0,0,0,3.43-1.42A2,2,0,0,0,22.16,19Zm-.64,2.21a1.1,1.1,0,1,1,.33-.79A1.06,1.06,0,0,1,21.52,21.21Z"/></g></g></svg>