<svg xmlns="http://www.w3.org/2000/svg" viewBox="0 0 32 32"><defs><style>.cls-1,.cls-4,.cls-5,.cls-7{fill:none;}.cls-1{stroke:#0080ff;}.cls-1,.cls-4,.cls-5{stroke-linecap:round;stroke-linejoin:round;}.cls-1,.cls-2,.cls-4{stroke-width:1.2px;}.cls-2{fill:#c9c9c9;stroke-miterlimit:10;}.cls-2,.cls-4{stroke:#5a6580;}.cls-3{fill:#fff;}.cls-5{stroke:#ee4950;stroke-width:2px;}.cls-6{fill:#ee4950;}</style></defs><title>pressure_out_</title><g id="Layer_2" data-name="Layer 2"><g id="Layer_2-2" data-name="Layer 2"><g id="Layer_2-3" data-name="Layer 2"><g id="Layer_2-2-2" data-name="Layer 2-2"><path class="cls-1" d="M27.18,7.56h-.34A6.27,6.27,0,0,0,14.46,9v.29a3,3,0,0,0,.18,6H27.18a3.86,3.86,0,0,0,.39-7.71Z"/><circle class="cls-2" cx="12.29" cy="17.27" r="9.92"/><path class="cls-3" d="M12.27,10a7.78,7.78,0,0,0-7.54,8H19.8A7.77,7.77,0,0,0,12.27,10Z"/><path class="cls-4" d="M24,17.88h-4.3v-.67a7.4,7.4,0,0,0-14.8,0v.67H.76"/><polyline class="cls-4" points="17.44 19.99 17.44 21.35 6.66 21.35 6.66 19.99"/><line class="cls-4" x1="16.14" y1="23.7" x2="11.4" y2="23.7"/><line class="cls-4" x1="9.22" y1="23.7" x2="7.24" y2="23.7"/><line class="cls-5" x1="12.05" y1="18.01" x2="8.96" y2="13.45"/><circle class="cls-6" cx="12.05" cy="18.01" r="1.5"/><rect class="cls-7" width="32" height="32"/></g></g></g></g></svg>