<svg xmlns="http://www.w3.org/2000/svg" viewBox="0 0 32 32"><defs><style>.cls-1{fill:#f5b05a;}.cls-2,.cls-3{fill:none;}.cls-2{stroke:#f5b05a;stroke-linecap:round;stroke-linejoin:round;}</style></defs><title>sun_1</title><g id="Layer_2" data-name="Layer 2"><g id="Layer_2-2" data-name="Layer 2"><g id="Layer_2-3" data-name="Layer 2"><g id="Layer_2-2-2" data-name="Layer 2-2"><path class="cls-1" d="M26.32,16l-3.24-1.92a7.15,7.15,0,0,1,0,3.84Z"/><path class="cls-1" d="M16,8.66a7.79,7.79,0,0,1,1.92.26L16,5.68l-1.9,3.24A7.63,7.63,0,0,1,16,8.66Z"/><path class="cls-1" d="M22.36,12.35,23.3,8.7l-3.65.94A7.34,7.34,0,0,1,22.36,12.35Z"/><path class="cls-1" d="M12.35,9.64,8.7,8.7l.94,3.65A7.34,7.34,0,0,1,12.35,9.64Z"/><path class="cls-1" d="M16,23.34a7.34,7.34,0,0,1-1.92-.26L16,26.32l1.92-3.24A7.79,7.79,0,0,1,16,23.34Z"/><path class="cls-1" d="M19.65,22.36l3.65.94-.94-3.65A7.34,7.34,0,0,1,19.65,22.36Z"/><path class="cls-1" d="M9.64,19.65,8.7,23.3l3.65-.94A7.34,7.34,0,0,1,9.64,19.65Z"/><path class="cls-1" d="M8.66,16a7.34,7.34,0,0,1,.26-1.92L5.68,16l3.24,1.92A7.34,7.34,0,0,1,8.66,16Z"/><circle class="cls-2" cx="16" cy="16" r="4.92"/><rect class="cls-3" width="32" height="32"/></g></g></g></g></svg>