<svg xmlns="http://www.w3.org/2000/svg" viewBox="0 0 32 32"><defs><style>.cls-1{fill:none;}.cls-2{fill:#786fac;}.cls-3{fill:#ee4941;}</style></defs><title>temp</title><g id="Layer_2" data-name="Layer 2"><g id="Layer_2-2" data-name="Layer 2"><g id="Layer_2-3" data-name="Layer 2"><g id="Layer_2-2-2" data-name="Layer 2-2"><rect class="cls-1" width="32" height="32"/><path class="cls-2" d="M19.88,8.94h.2V7.21a.94.94,0,0,1,.13-.41.76.76,0,0,1,.29-.3,1,1,0,0,1,.43-.11.86.86,0,0,1,.61.25.68.68,0,0,1,.23.41,2.66,2.66,0,0,1,0,.69v1.2h.64a.83.83,0,0,1,.57.18.53.53,0,0,1,.2.45.5.5,0,0,1-.28.5,2,2,0,0,1-.8.14h-.33v3.24q0,.32,0,.63a.77.77,0,0,0,.15.36.57.57,0,0,0,.41.14,2.68,2.68,0,0,0,.42-.05l.41-.06a.56.56,0,0,1,.39.17.59.59,0,0,1,.17.42.71.71,0,0,1-.47.66,3.16,3.16,0,0,1-1.33.22,2.3,2.3,0,0,1-1.25-.28,1.31,1.31,0,0,1-.56-.76A5.77,5.77,0,0,1,20,13.59V10.21h-.23a.9.9,0,0,1-.59-.18.67.67,0,0,1-.2-.46.6.6,0,0,1,.21-.45A.92.92,0,0,1,19.88,8.94Z"/><path class="cls-2" d="M27.93,9.39a2.06,2.06,0,0,1-.15.85,1.79,1.79,0,0,1-1.06,1.09,2.36,2.36,0,0,1-.84.15,2.23,2.23,0,0,1-.84-.15,2,2,0,0,1-.65-.44,1.88,1.88,0,0,1-.41-.66,2.64,2.64,0,0,1-.14-.84A2.7,2.7,0,0,1,24,8.54a2.28,2.28,0,0,1,.41-.67A2,2,0,0,1,25,7.45a2.43,2.43,0,0,1,1.68,0,1.8,1.8,0,0,1,.65.43,1.63,1.63,0,0,1,.41.66A2.06,2.06,0,0,1,27.93,9.39Zm-1,0a1.49,1.49,0,0,0-.27-1A.88.88,0,0,0,25.92,8a.87.87,0,0,0-.53.16,1,1,0,0,0-.36.46,2.16,2.16,0,0,0-.12.71,2.06,2.06,0,0,0,.12.7,1.13,1.13,0,0,0,.35.46,1,1,0,0,0,1.24-.17,1.47,1.47,0,0,0,.27-1Z"/><path class="cls-2" d="M15.43,6.53a.84.84,0,0,1,.84.84h0V19.55a3.28,3.28,0,1,1-4.58.72,3.51,3.51,0,0,1,.72-.72V7.38a.85.85,0,0,1,.84-.85h2.18m0-1H13.25a1.86,1.86,0,0,0-1.84,1.85V19.09a4.28,4.28,0,1,0,6.05.19,1.7,1.7,0,0,0-.19-.19V7.38a1.84,1.84,0,0,0-1.83-1.85Z"/><path class="cls-3" d="M14.34,8.18h0a.8.8,0,0,1,.8.8V22.24a.8.8,0,0,1-.8.8h0a.8.8,0,0,1-.8-.8V9A.8.8,0,0,1,14.34,8.18Z"/><circle class="cls-3" cx="14.34" cy="22.19" r="1.93"/></g></g></g></g></svg>