<svg xmlns="http://www.w3.org/2000/svg" xmlns:xlink="http://www.w3.org/1999/xlink" viewBox="0 0 18 16.6"><defs><style>.cls-1{stroke:#c1272d;stroke-miterlimit:10;fill:url(#linear-gradient);}.cls-2{fill:#fff;}</style><linearGradient id="linear-gradient" x1="0.5" y1="8.3" x2="17.5" y2="8.3" gradientUnits="userSpaceOnUse"><stop offset="0" stop-color="#cb2f4d"/><stop offset="0.63" stop-color="#ee4619"/><stop offset="1" stop-color="#ff5100"/></linearGradient></defs><title>error</title><g id="Layer_2" data-name="Layer 2"><g id="Layer_2-2" data-name="Layer 2"><path class="cls-1" d="M16.59,16.1H1.41a.91.91,0,0,1-.8-1.34L8.2,1A.91.91,0,0,1,9.8,1l7.59,13.79A.91.91,0,0,1,16.59,16.1Z"/><path class="cls-2" d="M8.37,10.13,8.19,7.38c0-.53,0-.91,0-1.15a1.08,1.08,0,0,1,.24-.74A.9.9,0,0,1,9,5.23a.66.66,0,0,1,.66.34,2.29,2.29,0,0,1,.16,1,6.74,6.74,0,0,1,0,.77l-.24,2.82a2.53,2.53,0,0,1-.17.77.46.46,0,0,1-.44.27.44.44,0,0,1-.43-.26A2.53,2.53,0,0,1,8.37,10.13ZM9,13.89a.88.88,0,0,1-.61-.22A.8.8,0,0,1,8.14,13a.85.85,0,0,1,.24-.6A.82.82,0,0,1,9,12.18a.84.84,0,0,1,.62.25.82.82,0,0,1,.25.6.79.79,0,0,1-.25.63A.87.87,0,0,1,9,13.89Z"/></g></g></svg>