<svg xmlns="http://www.w3.org/2000/svg" xmlns:xlink="http://www.w3.org/1999/xlink" viewBox="0 0 60 60"><defs><style>.cls-1{fill:#333;}.cls-2{fill:gray;}.cls-3{fill:none;}.cls-4{fill:url(#New_Gradient_Swatch_5);}</style><linearGradient id="New_Gradient_Swatch_5" x1="26.29" y1="32.38" x2="39.66" y2="32.38" gradientTransform="matrix(-1, 0, 0, 1, 60, 0)" gradientUnits="userSpaceOnUse"><stop offset="0" stop-color="#fff"/><stop offset="1" stop-color="#ffcb56"/></linearGradient></defs><title>left_door_open</title><g id="Layer_2" data-name="Layer 2"><g id="Layer_2-2" data-name="Layer 2"><rect class="cls-1" x="20.34" y="13.25" width="19.31" height="32.28"/><path class="cls-2" d="M38.66,14.25V44.52H21.34V14.25H38.66m2-2H19.34V46.52H40.66V12.25Z"/><rect class="cls-3" width="60" height="60"/><polygon class="cls-4" points="20.34 45.84 20.34 13.71 33.71 18.93 33.71 51.06 20.34 45.84"/><path class="cls-2" d="M21.34,15.17l11.37,4.44v30L21.34,45.16v-30m-2-2.92V46.52l15.37,6V18.25l-15.37-6Z"/><ellipse class="cls-2" cx="30" cy="32.43" rx="1.06" ry="1.51"/><rect class="cls-2" x="39.36" y="44.48" width="9.42" height="2"/><rect class="cls-2" x="11.22" y="44.48" width="9.42" height="2"/></g></g></svg>