<svg xmlns="http://www.w3.org/2000/svg" xmlns:xlink="http://www.w3.org/1999/xlink" viewBox="0 0 60 60"><defs><style>.cls-1{fill:none;}.cls-2{fill:gray;}.cls-3{fill:#333;}.cls-4{fill:url(#New_Gradient_Swatch_5);}.cls-5{fill:url(#New_Gradient_Swatch_5-2);}</style><linearGradient id="New_Gradient_Swatch_5" x1="33.29" y1="32.38" x2="44.66" y2="32.38" gradientUnits="userSpaceOnUse"><stop offset="0" stop-color="#fff"/><stop offset="1" stop-color="#ffcb56"/></linearGradient><linearGradient id="New_Gradient_Swatch_5-2" x1="16.04" y1="32.38" x2="27" y2="32.38" xlink:href="#New_Gradient_Swatch_5"/></defs><title>two-leaved_door_open</title><g id="Layer_2" data-name="Layer 2"><g id="Layer_2-2" data-name="Layer 2"><rect class="cls-1" width="60" height="60" transform="translate(60 60) rotate(180)"/><rect class="cls-2" x="43.36" y="44.52" width="9.42" height="2" transform="translate(96.14 91.04) rotate(180)"/><rect class="cls-2" x="7.92" y="44.52" width="9.42" height="2"/><rect class="cls-3" x="16.04" y="13.25" width="28.61" height="32.28"/><path class="cls-2" d="M43.66,14.25V44.52H17V14.25H43.66m2-2H15V46.52H45.66V12.25Z"/><polygon class="cls-4" points="33.29 18.89 44.66 13.79 44.66 45.87 33.29 50.98 33.29 18.89"/><path class="cls-2" d="M43.66,15.34V45.23l-9.37,4.2V19.54l9.37-4.2m2-3.09-13.37,6V52.52l13.37-6V12.25Z"/><polygon class="cls-5" points="16.04 45.88 16.04 13.81 27 18.89 27 50.96 16.04 45.88"/><path class="cls-2" d="M17,15.38l9,4.14V49.39l-9-4.15V15.38m-2-3.13V46.52l13,6V18.25l-13-6Z"/><ellipse class="cls-2" cx="37" cy="32.43" rx="1.06" ry="1.51"/><ellipse class="cls-2" cx="23.29" cy="32.43" rx="1.06" ry="1.51"/></g></g></svg>