<svg xmlns="http://www.w3.org/2000/svg" viewBox="0 0 60 60"><defs><style>.cls-1{fill:none;}.cls-2{fill:gray;}.cls-3{fill:#111b2d;}.cls-4{fill:#0794a3;}.cls-5{fill:#414956;}</style></defs><title>door.open-full</title><g id="Layer_2" data-name="Layer 2"><g id="Layer_2-2" data-name="Layer 2"><rect class="cls-1" width="60" height="60" transform="translate(60 60) rotate(180)"/><rect class="cls-2" x="43.36" y="44.52" width="9.42" height="2" transform="translate(96.14 91.04) rotate(180)"/><rect class="cls-2" x="7.92" y="44.52" width="9.42" height="2"/><rect class="cls-3" x="16.04" y="13.25" width="28.61" height="32.28"/><path class="cls-4" d="M43.66,14.25V44.52H17V14.25H43.66m2-2H15V46.52H45.66V12.25Z"/><polygon class="cls-4" points="44.76 45.88 44.76 13.79 56.11 18.89 56.11 50.98 44.76 45.88"/><path class="cls-4" d="M45.76,15.34l9.35,4.2V49.43l-9.35-4.2V15.34m-2-3.09V46.52l13.35,6V18.25l-13.35-6Z"/><ellipse class="cls-5" cx="52.78" cy="32.43" rx="1.06" ry="1.51"/><polygon class="cls-4" points="4.59 18.89 15.94 13.79 15.94 45.88 4.59 50.98 4.59 18.89"/><path class="cls-4" d="M14.94,15.34V45.23l-9.35,4.2V19.54l9.35-4.2m2-3.09-13.35,6V52.52l13.35-6V12.25Z"/><ellipse class="cls-5" cx="7.92" cy="32.43" rx="1.06" ry="1.51"/></g></g></svg>