<svg xmlns="http://www.w3.org/2000/svg" xmlns:xlink="http://www.w3.org/1999/xlink" viewBox="0 0 60 60"><defs><style>.cls-1{fill:#333;}.cls-2{fill:gray;}.cls-3{fill:url(#New_Gradient_Swatch_5);}.cls-4{fill:none;}</style><linearGradient id="New_Gradient_Swatch_5" x1="4" y1="31.88" x2="20.31" y2="31.88" gradientTransform="matrix(-1, 0, 0, 1, 60, 0)" gradientUnits="userSpaceOnUse"><stop offset="0" stop-color="#fff"/><stop offset="1" stop-color="#ffcb56"/></linearGradient></defs><title>right_door_open_1</title><g id="Layer_2" data-name="Layer 2"><g id="Layer_2-2" data-name="Layer 2"><rect class="cls-1" x="20.34" y="13.25" width="19.31" height="32.28"/><path class="cls-2" d="M38.66,14.25V44.52H21.34V14.25H38.66m2-2H19.34V46.52H40.66V12.25Z"/><polygon class="cls-3" points="39.69 45.76 39.69 13.55 56 18.01 56 50.21 39.69 45.76"/><path class="cls-2" d="M40.69,14.86,55,18.77V48.9L40.69,45V14.86m-2-2.61V46.52l18.31,5V17.25l-18.31-5Z"/><rect class="cls-4" width="60" height="60" transform="translate(60 60) rotate(-180)"/><rect class="cls-2" x="11.22" y="44.48" width="9.42" height="2" transform="translate(31.86 90.96) rotate(-180)"/><circle class="cls-2" cx="52.13" cy="31.88" r="1.51"/></g></g></svg>