<svg xmlns="http://www.w3.org/2000/svg" viewBox="0 0 60 60"><defs><style>.cls-1{fill:#414956;}.cls-2,.cls-3{fill:none;}.cls-2{stroke:#414956;stroke-linecap:round;stroke-miterlimit:10;stroke-width:2px;}</style></defs><title>lamps.off</title><g id="Layer_2" data-name="Layer 2"><g id="Layer_2-2" data-name="Layer 2"><path class="cls-1" d="M29.49,45H22a.47.47,0,0,0-.47.47V46a.47.47,0,0,0,.47.47h7.5A.47.47,0,0,0,30,46v-.53a.47.47,0,0,0-.47-.47Z"/><path class="cls-1" d="M29.44,47.37H22a.47.47,0,0,0-.47.47v.53a.47.47,0,0,0,.47.47h7.49a.47.47,0,0,0,.47-.47v-.53a.47.47,0,0,0-.47-.47Z"/><path class="cls-2" d="M33.19,39.36h3.63A3.12,3.12,0,0,0,40,36.24V36a7,7,0,0,1,2.14-5.13,12,12,0,0,0-14.56-19"/><path class="cls-1" d="M38.27,41.3H31.73v1.47h6.54a.47.47,0,0,0,.47-.47v-.53a.47.47,0,0,0-.47-.47Z"/><path class="cls-1" d="M38.23,43.71h-6.5v1.47h6.5a.47.47,0,0,0,.46-.47v-.53a.47.47,0,0,0-.46-.47Z"/><path class="cls-1" d="M37.07,46.12H31.73v1.46h5.34a.47.47,0,0,0,.47-.47v-.52a.47.47,0,0,0-.47-.47Z"/><path class="cls-1" d="M25.14,15.52A10.18,10.18,0,0,1,35.3,25.69,10,10,0,0,1,32,33.15a8.82,8.82,0,0,0-2.75,6.51v1A1.25,1.25,0,0,1,28,41.88h-4.6a1.25,1.25,0,0,1-1.24-1.25,8.83,8.83,0,0,0-3.37-7A10.16,10.16,0,0,1,24,15.59a9.18,9.18,0,0,1,1.17-.07m0-1.88a12.92,12.92,0,0,0-1.38.08,12,12,0,0,0-6.1,21.41,7,7,0,0,1,2.66,5.5,3.13,3.13,0,0,0,3.12,3.13H28a3.13,3.13,0,0,0,3.12-3.13v-1a6.92,6.92,0,0,1,2.14-5.12,12,12,0,0,0-8.16-20.9Z"/><path class="cls-1" d="M27.79,49.61H23.6a.68.68,0,1,0,0,1.35h4.19a.68.68,0,0,0,0-1.35Z"/><rect class="cls-3" width="60" height="60"/></g></g></svg>