<svg xmlns="http://www.w3.org/2000/svg" viewBox="0 0 55 55"><defs><style>.cls-1{fill:#f5b05a;}.cls-2{fill:none;}</style></defs><title>lamp.on</title><g id="Layer_2" data-name="Layer 2"><g id="Layer_2-2" data-name="Layer 2"><path class="cls-1" d="M27.5,11.32A10.83,10.83,0,0,1,38.32,22.14a10.7,10.7,0,0,1-3.49,8A9.41,9.41,0,0,0,31.91,37v1a1.33,1.33,0,0,1-1.32,1.33H25.7a1.34,1.34,0,0,1-1.33-1.33,9.38,9.38,0,0,0-3.58-7.42,10.82,10.82,0,0,1,5.47-19.24,10.31,10.31,0,0,1,1.24-.07m0-2A14.44,14.44,0,0,0,26,9.4a12.81,12.81,0,0,0-6.49,22.79,7.47,7.47,0,0,1,2.82,5.86,3.33,3.33,0,0,0,3.33,3.33h4.89a3.33,3.33,0,0,0,3.32-3.33V37a7.39,7.39,0,0,1,2.28-5.46A12.82,12.82,0,0,0,27.5,9.32Z"/><path class="cls-1" d="M31.85,42.66H24.43a.78.78,0,0,0,0,1.56h7.42a.78.78,0,0,0,0-1.56Z"/><path class="cls-1" d="M31.8,45.22H24.38a.78.78,0,1,0,0,1.56H31.8a.78.78,0,0,0,0-1.56Z"/><path class="cls-1" d="M30.57,47.79H25.71a.78.78,0,0,0,0,1.56h4.86a.78.78,0,0,0,0-1.56Z"/><rect class="cls-2" width="55" height="55"/></g></g></svg>