<svg xmlns="http://www.w3.org/2000/svg" viewBox="0 0 60 60"><defs><style>.cls-1,.cls-3{fill:none;}.cls-2{fill:#fff;}.cls-2,.cls-3{stroke:#ccc;stroke-linecap:round;stroke-linejoin:round;stroke-width:2px;}</style></defs><title>water_pump</title><g id="Layer_2" data-name="Layer 2"><g id="Layer_2-2" data-name="Layer 2"><rect class="cls-1" width="60" height="60"/><rect class="cls-2" x="26.14" y="30" width="8.92" height="16.84"/><path class="cls-2" d="M19,32.1H14V30a6.24,6.24,0,0,1,6.23-6.22h7v5h-7A1.25,1.25,0,0,0,19,30Z"/><line class="cls-3" x1="30.6" y1="18.8" x2="30.6" y2="13.3"/><line class="cls-3" x1="41.42" y1="20.7" x2="35.89" y2="23.89"/><path class="cls-3" d="M30,12.43c4.72,0,11.62-.11,12.21,11.86s.65,14.86,3.54,18.52"/><path class="cls-2" d="M27.14,44.62h6.5a4.75,4.75,0,0,1,4.75,4.75v0a0,0,0,0,1,0,0h-16a0,0,0,0,1,0,0v0a4.75,4.75,0,0,1,4.75-4.75Z"/><path class="cls-2" d="M29.52,19.3h2.15A5.34,5.34,0,0,1,37,24.64V33.1a0,0,0,0,1,0,0H24.18a0,0,0,0,1,0,0V24.64A5.34,5.34,0,0,1,29.52,19.3Z"/></g></g></svg>