<svg xmlns="http://www.w3.org/2000/svg" xmlns:xlink="http://www.w3.org/1999/xlink" viewBox="0 0 60 60"><defs><style>.cls-1,.cls-10,.cls-6,.cls-9{fill:none;}.cls-2,.cls-3,.cls-4,.cls-5,.cls-6,.cls-7,.cls-8{stroke:gray;stroke-linejoin:round;stroke-width:2px;}.cls-10,.cls-2,.cls-3,.cls-4,.cls-5,.cls-6,.cls-7,.cls-8,.cls-9{stroke-linecap:round;}.cls-2{fill:url(#New_Gradient_Swatch_5);}.cls-3{fill:url(#New_Gradient_Swatch_5-2);}.cls-4{fill:url(#New_Gradient_Swatch_5-3);}.cls-5{fill:url(#New_Gradient_Swatch_5-4);}.cls-7{fill:url(#New_Gradient_Swatch_5-5);}.cls-8{fill:url(#New_Gradient_Swatch_5-6);}.cls-9{stroke:#29abe2;}.cls-10,.cls-9{stroke-miterlimit:10;}.cls-10{stroke:#0071bc;}</style><linearGradient id="New_Gradient_Swatch_5" x1="26.14" y1="38.42" x2="35.06" y2="38.42" gradientUnits="userSpaceOnUse"><stop offset="0" stop-color="#fff"/><stop offset="1" stop-color="#ffcb56"/></linearGradient><linearGradient id="New_Gradient_Swatch_5-2" x1="13.99" y1="27.95" x2="27.22" y2="27.95" xlink:href="#New_Gradient_Swatch_5"/><linearGradient id="New_Gradient_Swatch_5-3" x1="30.6" y1="16.05" x2="30.6" y2="16.05" xlink:href="#New_Gradient_Swatch_5"/><linearGradient id="New_Gradient_Swatch_5-4" x1="42.82" y1="-126.7" x2="47.33" y2="-126.7" gradientTransform="translate(-37.67 133.02) rotate(15)" xlink:href="#New_Gradient_Swatch_5"/><linearGradient id="New_Gradient_Swatch_5-5" x1="22.39" y1="47" x2="38.39" y2="47" xlink:href="#New_Gradient_Swatch_5"/><linearGradient id="New_Gradient_Swatch_5-6" x1="24.18" y1="26.2" x2="37.01" y2="26.2" xlink:href="#New_Gradient_Swatch_5"/></defs><title>water_pump_on</title><g id="Layer_2" data-name="Layer 2"><g id="Layer_2-2" data-name="Layer 2"><rect class="cls-1" width="60" height="60"/><rect class="cls-2" x="26.14" y="30" width="8.92" height="16.84"/><path class="cls-3" d="M19,32.1H14V30a6.24,6.24,0,0,1,6.23-6.22h7v5h-7A1.25,1.25,0,0,0,19,30Z"/><line class="cls-4" x1="30.6" y1="18.8" x2="30.6" y2="13.3"/><line class="cls-5" x1="41.42" y1="20.7" x2="35.89" y2="23.89"/><path class="cls-6" d="M30,12.43c4.72,0,11.62-.11,12.21,11.86s.65,14.86,3.54,18.52"/><path class="cls-7" d="M27.14,44.62h6.5a4.75,4.75,0,0,1,4.75,4.75v0a0,0,0,0,1,0,0h-16a0,0,0,0,1,0,0v0A4.75,4.75,0,0,1,27.14,44.62Z"/><path class="cls-8" d="M29.52,19.3h2.15A5.34,5.34,0,0,1,37,24.64V33.1a0,0,0,0,1,0,0H24.18a0,0,0,0,1,0,0V24.64A5.34,5.34,0,0,1,29.52,19.3Z"/><path class="cls-9" d="M19,35.07c0,1.8,1.77,1.61,1.77,3.23S19,39.72,19,41.53s1.77,1.9,1.77,3.57S19,46.85,19,48.66"/><path class="cls-10" d="M16.17,35.07c0,1.8,1.77,1.61,1.77,3.23s-1.77,1.42-1.77,3.23,1.77,1.9,1.77,3.57-1.77,1.75-1.77,3.56"/><path class="cls-9" d="M13.3,35.07c0,1.8,1.77,1.61,1.77,3.23s-1.77,1.42-1.77,3.23,1.77,1.9,1.77,3.57-1.77,1.75-1.77,3.56"/></g></g></svg>