<svg xmlns="http://www.w3.org/2000/svg" viewBox="0 0 60 60"><defs><style>.cls-1{fill:#ffff38;}.cls-1,.cls-2,.cls-3,.cls-4,.cls-5,.cls-6{stroke:#000;stroke-width:2px;}.cls-1,.cls-2,.cls-4,.cls-5{stroke-linejoin:round;}.cls-2{fill:#ff68ff;}.cls-3{fill:aqua;}.cls-3,.cls-6{stroke-linejoin:bevel;}.cls-4{fill:#2bff00;}.cls-5{fill:#05f;}.cls-6{fill:#ed1c24;}.cls-7{fill:none;}</style></defs><title>color_random_smaller</title><g id="Layer_2" data-name="Layer 2"><g id="Layer_2-2" data-name="Layer 2"><polygon class="cls-1" points="14.14 13.2 23.43 21.78 15 37.12 6.12 27.81 14.14 13.2"/><polygon class="cls-2" points="35.65 25.01 23.43 21.78 15 37.12 27.62 39.63 35.65 25.01"/><polygon class="cls-3" points="25.97 17.15 14.14 13.2 23.43 21.78 35.65 25.01 25.97 17.15"/><ellipse cx="24.7" cy="19.47" rx="1.06" ry="2.33" transform="translate(-4.26 31.74) rotate(-61.22)"/><ellipse cx="25.01" cy="27.15" rx="2.04" ry="1.29" transform="translate(-10.83 36) rotate(-61.22)"/><ellipse cx="30.36" cy="28.44" rx="2.04" ry="1.29" transform="translate(-9.18 41.35) rotate(-61.22)"/><ellipse cx="21.76" cy="33.08" rx="2.04" ry="1.29" transform="translate(-17.72 36.22) rotate(-61.22)"/><ellipse cx="27.1" cy="34.37" rx="2.04" ry="1.29" transform="translate(-16.07 41.57) rotate(-61.22)"/><ellipse cx="15.13" cy="19.12" rx="2.04" ry="1.29" transform="translate(-8.91 23.17) rotate(-61.22)"/><ellipse cx="18.79" cy="22.52" rx="2.04" ry="1.29" transform="translate(-9.99 28.15) rotate(-61.22)"/><ellipse cx="12.81" cy="23.33" rx="2.04" ry="1.29" transform="translate(-13.81 23.33) rotate(-61.22)"/><ellipse cx="16.47" cy="26.74" rx="2.04" ry="1.29" transform="translate(-14.89 28.3) rotate(-61.22)"/><ellipse cx="10.36" cy="27.8" rx="2.04" ry="1.29" transform="translate(-18.99 23.49) rotate(-61.22)"/><ellipse cx="14.02" cy="31.2" rx="2.04" ry="1.29" transform="translate(-20.08 28.47) rotate(-61.22)"/><polygon class="cls-4" points="24.51 31 37.09 29.71 43.02 46.16 30.17 46.68 24.51 31"/><ellipse cx="35.53" cy="34.46" rx="1.29" ry="2.04" transform="translate(-9.59 14.11) rotate(-19.84)"/><ellipse cx="33.77" cy="38.58" rx="1.29" ry="2.04" transform="translate(-11.09 13.75) rotate(-19.84)"/><ellipse cx="32" cy="42.7" rx="1.29" ry="2.04" transform="translate(-12.6 13.4) rotate(-19.84)"/><polygon class="cls-5" points="47.59 22.68 37.09 29.71 43.02 46.16 53.25 38.36 47.59 22.68"/><polygon class="cls-6" points="35.29 24.74 24.51 31 37.09 29.71 47.59 22.68 35.29 24.74"/><ellipse cx="36.19" cy="27.23" rx="2.33" ry="1.06" transform="translate(-7.09 13.9) rotate(-19.84)"/><ellipse cx="42.57" cy="33.2" rx="1.29" ry="2.04" transform="translate(-8.74 16.42) rotate(-19.84)"/><ellipse cx="48.04" cy="35.64" rx="1.29" ry="2.04" transform="translate(-9.25 18.42) rotate(-19.84)"/><rect class="cls-7" width="60" height="60"/></g></g></svg>