<svg xmlns="http://www.w3.org/2000/svg" xmlns:xlink="http://www.w3.org/1999/xlink" viewBox="0 0 60 60"><defs><style>.cls-1{fill:#49d278;}.cls-2{fill:#0af;}.cls-3{fill:#7852ec;}.cls-4,.cls-8{fill:none;}.cls-4{stroke-linejoin:round;stroke-width:2px;stroke:url(#New_Gradient_Swatch_27);}.cls-5{fill:#4ab105;}.cls-6{fill:#f5b05a;}.cls-7{fill:#ee5d30;}</style><linearGradient id="New_Gradient_Swatch_27" x1="12.42" y1="30" x2="47.58" y2="30" gradientUnits="userSpaceOnUse"><stop offset="0" stop-color="#7852ec"/><stop offset="0.26" stop-color="#0af"/><stop offset="0.47" stop-color="#49d278"/><stop offset="0.72" stop-color="#ffc856"/><stop offset="0.98" stop-color="#ee4941"/></linearGradient></defs><title>random</title><g id="Layer_2" data-name="Layer 2"><g id="Layer_2-2" data-name="Layer 2"><ellipse class="cls-1" cx="25.84" cy="27.08" rx="2.75" ry="1.74" transform="matrix(0, -1, 1, 0, -1.27, 52.89)"/><ellipse class="cls-2" cx="21.72" cy="31.5" rx="2.75" ry="1.74" transform="translate(-9.8 53.18) rotate(-89.94)"/><ellipse class="cls-3" cx="17.57" cy="35.92" rx="2.75" ry="1.74" transform="translate(-18.37 53.45) rotate(-89.94)"/><path class="cls-4" d="M13.45,17.62,30,21.76l0,23.62L13.42,40.13Zm33.13,0L30,21.76l0,23.62,16.57-5.21ZM30,14.62l-16.56,3L30,21.76l16.57-4.1Z"/><ellipse class="cls-5" cx="30.01" cy="18.2" rx="1.43" ry="3.15" transform="translate(11.78 48.2) rotate(-89.94)"/><ellipse class="cls-6" cx="35.37" cy="28.72" rx="2.75" ry="1.74" transform="translate(6.61 64.05) rotate(-89.94)"/><ellipse class="cls-7" cx="41.18" cy="34.32" rx="2.75" ry="1.74" transform="matrix(0, -1, 1, 0, 6.81, 75.47)"/><g id="Layer_2-3" data-name="Layer 2"><g id="Layer_2-2-2" data-name="Layer 2-2"><rect class="cls-8" width="60" height="60"/></g></g></g></g></svg>