<svg xmlns="http://www.w3.org/2000/svg" viewBox="0 0 46 46"><defs><style>.cls-1,.cls-2{fill:none;}.cls-2{stroke:#5684e2;stroke-linecap:round;stroke-linejoin:round;stroke-width:2px;}</style></defs><title>snow.on</title><g id="Layer_2" data-name="Layer 2"><g id="Layer_2-2" data-name="Layer 2"><rect class="cls-1" width="46" height="46"/><line class="cls-2" x1="8.4" y1="23" x2="23.17" y2="23"/><polyline class="cls-2" points="10.71 19.66 14.05 23 10.71 26.34"/><line class="cls-2" x1="37.6" y1="23" x2="22.83" y2="23"/><polyline class="cls-2" points="35.29 26.34 31.95 23 35.29 19.66"/><line class="cls-2" x1="15.87" y1="10.36" x2="23.26" y2="23.15"/><polyline class="cls-2" points="19.92 10.68 18.7 15.24 14.13 14.02"/><line class="cls-2" x1="30.47" y1="35.64" x2="23.09" y2="22.85"/><polyline class="cls-2" points="26.43 35.32 27.65 30.75 32.21 31.98"/><line class="cls-2" x1="15.87" y1="35.64" x2="23.26" y2="22.85"/><polyline class="cls-2" points="14.13 31.98 18.7 30.75 19.92 35.32"/><line class="cls-2" x1="30.47" y1="10.36" x2="23.09" y2="23.15"/><polyline class="cls-2" points="32.21 14.02 27.65 15.24 26.43 10.68"/><polygon class="cls-2" points="23.17 16.09 25.59 18.82 29.16 19.54 28 23 29.16 26.46 25.59 27.18 23.17 29.91 20.76 27.18 17.19 26.46 18.34 23 17.19 19.54 20.76 18.82 23.17 16.09"/></g></g></svg>