<svg xmlns="http://www.w3.org/2000/svg" viewBox="0 0 60 60"><defs><style>.cls-1{fill:#414956;}.cls-2{fill:none;}</style></defs><title>sun.off</title><g id="Layer_2" data-name="Layer 2"><g id="Layer_2-2" data-name="Layer 2"><path class="cls-1" d="M43,26.47a13.22,13.22,0,0,1,0,7.06L49,30l-6-3.53Z"/><path class="cls-1" d="M30,11l-3.53,6a13.22,13.22,0,0,1,7.06,0L30,11Z"/><path class="cls-1" d="M43.44,16.56l-6.71,1.72a13.72,13.72,0,0,1,5,5l1.72-6.71Z"/><path class="cls-1" d="M16.56,16.56l1.72,6.71a13.72,13.72,0,0,1,5-5l-6.71-1.72Z"/><path class="cls-1" d="M33.53,43a13.22,13.22,0,0,1-7.06,0L30,49l3.53-6Z"/><path class="cls-1" d="M41.72,36.73a13.72,13.72,0,0,1-5,5l6.71,1.72-1.72-6.71Z"/><path class="cls-1" d="M18.28,36.73l-1.72,6.71,6.71-1.72a13.72,13.72,0,0,1-5-5Z"/><path class="cls-1" d="M17,26.47,11,30l6,3.53a13.22,13.22,0,0,1,0-7.06Z"/><path class="cls-1" d="M30,22.45A7.55,7.55,0,1,1,22.45,30,7.56,7.56,0,0,1,30,22.45m0-2A9.55,9.55,0,1,0,39.55,30,9.54,9.54,0,0,0,30,20.45Z"/><rect class="cls-2" width="60" height="60"/></g></g></svg>