<svg xmlns="http://www.w3.org/2000/svg" viewBox="0 0 60 60"><defs><style>.cls-1{fill:none;}.cls-2{fill:#414956;}</style></defs><title>vent.off</title><g id="Layer_2" data-name="Layer 2"><g id="Layer_2-2" data-name="Layer 2"><rect class="cls-1" width="60" height="60"/><path class="cls-2" d="M31.48,9.09v2a7.3,7.3,0,0,1,3.85,1.13,3.68,3.68,0,0,1,1.45,4.72c-.42,1.07-1.22,1.49-2.6,2.16-2.44,1.17-4.6,2.59-4.73,6.42-1.83-2.33-3.47-5.07-3.73-7.3A6.55,6.55,0,0,1,27.1,13a5.84,5.84,0,0,1,4.38-1.87v-2m0,0C27,9.1,23,12.54,23.74,18.45c.44,3.83,4,8.4,6.48,11a.86.86,0,0,0,.64.27.88.88,0,0,0,.89-1.05c-1.84-9.13,5-6.18,6.89-11a5.66,5.66,0,0,0-2.26-7.16,9.31,9.31,0,0,0-4.9-1.43Z"/><path class="cls-2" d="M30.69,34.48c1.83,2.33,3.47,5.07,3.73,7.3A6.55,6.55,0,0,1,33,47a5.81,5.81,0,0,1-4.38,1.87,7.35,7.35,0,0,1-3.85-1.13,3.68,3.68,0,0,1-1.45-4.72c.42-1.07,1.22-1.5,2.61-2.16,2.43-1.17,4.59-2.59,4.72-6.42m-1.41-4.19a.88.88,0,0,0-.89,1.05c1.84,9.13-5,6.18-6.89,11a5.66,5.66,0,0,0,2.26,7.16,9.33,9.33,0,0,0,4.9,1.43c4.47,0,8.44-3.45,7.75-9.36-.45-3.83-4-8.4-6.49-11a.86.86,0,0,0-.64-.27Z"/><path class="cls-2" d="M42.87,25.59a5.71,5.71,0,0,1,5.28,2.83,6.77,6.77,0,0,1-.37,6.84A3.42,3.42,0,0,1,44.73,37a4.55,4.55,0,0,1-1.67-.32c-1.07-.42-1.5-1.22-2.16-2.61-.88-1.82-2.2-4.56-6.42-4.72,2.33-1.83,5.07-3.47,7.3-3.73a10.23,10.23,0,0,1,1.09-.06m0-2a11.93,11.93,0,0,0-1.32.07c-3.83.45-8.4,4-11,6.49a.9.9,0,0,0,.6,1.55.55.55,0,0,0,.18,0,14.41,14.41,0,0,1,2.74-.31c5.8,0,4,5.52,8.24,7.2a6.51,6.51,0,0,0,2.41.46,5.37,5.37,0,0,0,4.75-2.72c3.41-5.53.5-12.72-6.61-12.72Z"/><path class="cls-2" d="M15.27,23h0a4.55,4.55,0,0,1,1.67.32c1.07.42,1.5,1.22,2.16,2.61.88,1.82,2.2,4.56,6.42,4.72-2.33,1.83-5.07,3.47-7.3,3.73a10.23,10.23,0,0,1-1.09.06,5.71,5.71,0,0,1-5.28-2.83,6.77,6.77,0,0,1,.37-6.84,3.42,3.42,0,0,1,3-1.77m0-2a5.37,5.37,0,0,0-4.75,2.72c-3.41,5.53-.5,12.72,6.61,12.72a11.93,11.93,0,0,0,1.32-.07c3.83-.45,8.4-4,11-6.49a.9.9,0,0,0-.6-1.55.55.55,0,0,0-.18,0,14.41,14.41,0,0,1-2.74.31c-5.8,0-4-5.52-8.24-7.2A6.51,6.51,0,0,0,15.27,21Z"/><circle class="cls-2" cx="30" cy="29.95" r="4.45"/></g></g></svg>