<svg xmlns="http://www.w3.org/2000/svg" xmlns:xlink="http://www.w3.org/1999/xlink" viewBox="0 0 32 32"><defs><style>.cls-1,.cls-2,.cls-3{stroke-linecap:round;stroke-linejoin:round;}.cls-1{fill:url(#New_Gradient_Swatch_28);stroke:url(#New_Gradient_Swatch_30);}.cls-2{fill:#fff;stroke:#fff;stroke-width:2px;}.cls-3{fill:url(#New_Gradient_Swatch_28-2);stroke:url(#New_Gradient_Swatch_30-2);}.cls-4{fill:#2c98bc;}.cls-5{fill:none;}</style><linearGradient id="New_Gradient_Swatch_28" x1="13.2" y1="21.09" x2="6.8" y2="14.69" gradientUnits="userSpaceOnUse"><stop offset="0" stop-color="#fff"/><stop offset="1" stop-color="#78d2f7"/></linearGradient><linearGradient id="New_Gradient_Swatch_30" x1="13.55" y1="21.45" x2="6.44" y2="14.33" gradientUnits="userSpaceOnUse"><stop offset="0" stop-color="#46f2ff"/><stop offset="1" stop-color="#5fc1ff"/></linearGradient><linearGradient id="New_Gradient_Swatch_28-2" x1="24.36" y1="23.12" x2="13.1" y2="11.86" xlink:href="#New_Gradient_Swatch_28"/><linearGradient id="New_Gradient_Swatch_30-2" x1="24.71" y1="23.47" x2="12.75" y2="11.51" xlink:href="#New_Gradient_Swatch_30"/></defs><title>hum_1</title><g id="Layer_2" data-name="Layer 2"><g id="Layer_2-2" data-name="Layer 2"><path class="cls-1" d="M13.85,18.84a3.86,3.86,0,1,1-7.71,0c0-2.12,3.86-7.35,3.86-7.35S13.85,16.72,13.85,18.84Z"/><path class="cls-2" d="M25.92,18.57a7.19,7.19,0,1,1-14.38,0c0-4,7.19-12.34,7.19-12.34S25.92,14.6,25.92,18.57Z"/><path class="cls-3" d="M25.92,18.57a7.19,7.19,0,1,1-14.38,0c0-4,7.19-12.34,7.19-12.34S25.92,14.6,25.92,18.57Z"/><polygon class="cls-4" points="21.97 15.12 17 21.12 15.49 21.12 20.46 15.12 21.97 15.12"/><path class="cls-4" d="M18,14.59A1.87,1.87,0,0,0,16.59,14a2,2,0,0,0-2,2,1.89,1.89,0,0,0,.58,1.4,1.93,1.93,0,0,0,1.41.59A1.88,1.88,0,0,0,18,17.4a1.93,1.93,0,0,0,.58-1.4A2,2,0,0,0,18,14.59Zm-.62,2.18a1.1,1.1,0,0,1-1.55,0,1.06,1.06,0,0,1-.32-.77,1.08,1.08,0,0,1,.32-.78,1.1,1.1,0,0,1,1.55,0,1.08,1.08,0,0,1,.32.78A1.06,1.06,0,0,1,17.36,16.77Z"/><path class="cls-4" d="M22.28,19a2,2,0,1,0,.58,1.41A1.92,1.92,0,0,0,22.28,19Zm-.63,2.18a1.1,1.1,0,0,1-1.55,0,1.1,1.1,0,0,1,0-1.55,1.1,1.1,0,0,1,1.55,1.55Z"/><rect class="cls-5" width="32" height="32"/></g></g></svg>