<svg xmlns="http://www.w3.org/2000/svg" xmlns:xlink="http://www.w3.org/1999/xlink" viewBox="0 0 32 32"><defs><style>.cls-1{fill:none;}.cls-2,.cls-3,.cls-4{stroke-linecap:round;stroke-linejoin:round;}.cls-2{fill:url(#New_Gradient_Swatch_13);stroke:url(#linear-gradient);}.cls-3{fill:#fff;stroke:#fff;stroke-width:3px;}.cls-4{fill:url(#New_Gradient_Swatch_13-2);stroke:url(#linear-gradient-2);}.cls-5{fill:#2c98bc;}</style><linearGradient id="New_Gradient_Swatch_13" x1="12.29" y1="21.15" x2="5.81" y2="14.67" gradientUnits="userSpaceOnUse"><stop offset="0" stop-color="#fff"/><stop offset="1" stop-color="#78d2f7"/></linearGradient><linearGradient id="linear-gradient" x1="12.64" y1="21.5" x2="5.46" y2="14.32" gradientUnits="userSpaceOnUse"><stop offset="0" stop-color="#46f2ff"/><stop offset="1" stop-color="#5fc1ff"/></linearGradient><linearGradient id="New_Gradient_Swatch_13-2" x1="23.26" y1="23.2" x2="11.88" y2="11.82" xlink:href="#New_Gradient_Swatch_13"/><linearGradient id="linear-gradient-2" x1="23.62" y1="23.55" x2="11.53" y2="11.46" xlink:href="#linear-gradient"/></defs><title>hum_07_02</title><g id="Layer_2" data-name="Layer 2"><g id="Layer_2-2" data-name="Layer 2"><rect class="cls-1" width="32" height="32"/><path class="cls-2" d="M13,18.88a3.9,3.9,0,0,1-7.79,0c0-2.16,3.89-7.44,3.89-7.44S13,16.72,13,18.88Z"/><path class="cls-3" d="M24.84,18.6a7.27,7.27,0,1,1-14.54,0c0-4,7.27-12.48,7.27-12.48S24.84,14.59,24.84,18.6Z"/><path class="cls-4" d="M24.84,18.6a7.27,7.27,0,1,1-14.54,0c0-4,7.27-12.48,7.27-12.48S24.84,14.59,24.84,18.6Z"/><polygon class="cls-5" points="20.85 15.11 15.82 21.18 14.3 21.18 19.32 15.11 20.85 15.11"/><path class="cls-5" d="M16.82,14.58A1.89,1.89,0,0,0,15.41,14a2,2,0,0,0-2,2,2,2,0,0,0,2,2,1.93,1.93,0,0,0,1.41-.59A2,2,0,0,0,17.4,16,2,2,0,0,0,16.82,14.58Zm-.63,2.2A1.11,1.11,0,0,1,14.3,16a1.11,1.11,0,1,1,2.21,0A1.06,1.06,0,0,1,16.19,16.78Z"/><path class="cls-5" d="M21.16,19a2,2,0,1,0-2.84,2.84,2,2,0,0,0,3.43-1.42A2,2,0,0,0,21.16,19Zm-.64,2.21a1.1,1.1,0,1,1,.33-.79A1.06,1.06,0,0,1,20.52,21.21Z"/></g></g></svg>