<svg xmlns="http://www.w3.org/2000/svg" xmlns:xlink="http://www.w3.org/1999/xlink" viewBox="0 0 32 32"><defs><style>.cls-1,.cls-5{fill:#fff;}.cls-1,.cls-2,.cls-3,.cls-4{stroke:gray;}.cls-1,.cls-2,.cls-3,.cls-4,.cls-5,.cls-6{stroke-linecap:round;stroke-linejoin:round;}.cls-2{fill:#fcc062;}.cls-3{fill:#a9ebff;}.cls-4,.cls-8{fill:none;}.cls-5{stroke:#fff;}.cls-6{fill:url(#New_Gradient_Swatch_28);stroke:url(#New_Gradient_Swatch_30);}.cls-7{fill:#2c98bc;}</style><linearGradient id="New_Gradient_Swatch_28" x1="26.92" y1="21.67" x2="18.29" y2="13.05" gradientUnits="userSpaceOnUse"><stop offset="0" stop-color="#fff"/><stop offset="1" stop-color="#78d2f7"/></linearGradient><linearGradient id="New_Gradient_Swatch_30" x1="27.27" y1="22.02" x2="17.94" y2="12.69" gradientUnits="userSpaceOnUse"><stop offset="0" stop-color="#46f2ff"/><stop offset="1" stop-color="#5fc1ff"/></linearGradient></defs><title>hum_in_1</title><g id="Layer_2" data-name="Layer 2"><g id="Layer_2-2" data-name="Layer 2"><rect class="cls-1" x="6.43" y="15.24" width="15.86" height="10.63"/><polyline class="cls-2" points="7.84 12.66 4.28 16.22 24.49 16.22 14.38 6.12 10.56 9.94"/><rect class="cls-3" x="9" y="18.2" width="5.26" height="5.26"/><polygon class="cls-4" points="24.49 16.22 14.38 6.12 10.42 10.08 10.42 7.35 8.04 7.35 8.04 12.46 4.28 16.22 24.49 16.22"/><path class="cls-5" d="M28.11,18.19a5.51,5.51,0,1,1-11,0c0-3,5.51-9.46,5.51-9.46S28.11,15.15,28.11,18.19Z"/><path class="cls-6" d="M28.11,18.19a5.51,5.51,0,1,1-11,0c0-3,5.51-9.46,5.51-9.46S28.11,15.15,28.11,18.19Z"/><polygon class="cls-7" points="25.36 15.2 21.14 20.3 19.86 20.3 24.07 15.2 25.36 15.2"/><path class="cls-7" d="M22,14.75a1.6,1.6,0,0,0-1.18-.49,1.69,1.69,0,1,0,0,3.37A1.6,1.6,0,0,0,22,17.14a1.7,1.7,0,0,0,0-2.39Zm-.53,1.85a.93.93,0,1,1,.27-.65A.89.89,0,0,1,21.44,16.6Z"/><path class="cls-7" d="M25.62,18.47a1.7,1.7,0,1,0,.49,1.19A1.63,1.63,0,0,0,25.62,18.47Zm-.54,1.85a.93.93,0,0,1-1.58-.66.91.91,0,0,1,.27-.66.93.93,0,0,1,1.31,0,.91.91,0,0,1,.27.66A.9.9,0,0,1,25.08,20.32Z"/><rect class="cls-8" width="32" height="32"/></g></g></svg>