<svg xmlns="http://www.w3.org/2000/svg" xmlns:xlink="http://www.w3.org/1999/xlink" viewBox="0 0 32 32"><defs><style>.cls-1,.cls-2,.cls-5{fill:none;}.cls-1{stroke:#5684e2;}.cls-1,.cls-2{stroke-linecap:round;stroke-linejoin:round;stroke-width:1.2px;}.cls-2{stroke:url(#New_Gradient_Swatch_12);}.cls-3{fill:#2c95b9;}.cls-4{fill:#5684e2;}</style><linearGradient id="New_Gradient_Swatch_12" x1="23.57" y1="22.09" x2="14.23" y2="12.74" gradientUnits="userSpaceOnUse"><stop offset="0" stop-color="#46efff"/><stop offset="1" stop-color="#5fbeff"/></linearGradient></defs><title>hum_in</title><g id="Layer_2" data-name="Layer 2"><g id="Layer_2-2" data-name="Layer 2"><rect class="cls-1" x="5.49" y="18.24" width="5.18" height="5.18"/><path class="cls-2" d="M24.33,18.23a5.43,5.43,0,0,1-10.86,0c0-3,5.43-9.32,5.43-9.32S24.33,15.23,24.33,18.23Z"/><polygon class="cls-3" points="21.61 15.29 17.45 20.31 16.19 20.31 20.35 15.29 21.61 15.29"/><path class="cls-3" d="M18.27,14.84a1.59,1.59,0,0,0-1.16-.48,1.63,1.63,0,0,0-1.18.48,1.67,1.67,0,0,0,0,2.36,1.63,1.63,0,0,0,1.18.48,1.59,1.59,0,0,0,1.16-.48,1.69,1.69,0,0,0,0-2.36Zm-.52,1.83a.91.91,0,0,1-1.29,0,.92.92,0,0,1,0-1.3.91.91,0,0,1,1.29,0,.92.92,0,0,1,0,1.3Z"/><path class="cls-3" d="M21.87,18.51A1.6,1.6,0,0,0,20.69,18,1.67,1.67,0,0,0,19,19.68a1.6,1.6,0,0,0,.49,1.18,1.58,1.58,0,0,0,1.17.49,1.6,1.6,0,0,0,1.18-.49,1.64,1.64,0,0,0,.49-1.18A1.62,1.62,0,0,0,21.87,18.51Zm-.53,1.82a.88.88,0,0,1-.65.27.89.89,0,0,1-.65-.27.91.91,0,0,1-.26-.65.89.89,0,0,1,.91-.91.91.91,0,0,1,.65.26.89.89,0,0,1,.27.65A.88.88,0,0,1,21.34,20.33Z"/><path class="cls-4" d="M12.65,15.71H2.23L5,13a.58.58,0,0,0,.17-.41V8.13H6.31v2.1a.58.58,0,0,0,.36.54.57.57,0,0,0,.63-.13l3.5-3.49,4.3,4.3c.23-.33.46-.64.69-.95L11.2,5.92a.58.58,0,0,0-.81,0L7.47,8.84V7.55A.58.58,0,0,0,6.89,7H4.54A.58.58,0,0,0,4,7.55v4.8L.43,15.88a.57.57,0,0,0-.13.63.58.58,0,0,0,.54.35H12.23A10.1,10.1,0,0,1,12.65,15.71Z"/><path class="cls-4" d="M18.9,25.11A6.54,6.54,0,0,1,18,25v.19H3.53V16.4a.58.58,0,0,0-1.15,0v9.41a.58.58,0,0,0,.57.57H18.59a.58.58,0,0,0,.58-.57v-.72Z"/><rect class="cls-5" width="32" height="32"/></g></g></svg>