<svg xmlns="http://www.w3.org/2000/svg" xmlns:xlink="http://www.w3.org/1999/xlink" viewBox="0 0 32 32"><defs><style>.cls-1{fill:none;}.cls-2{fill:#754c24;}.cls-3{fill:#73c63f;}.cls-4{fill:#39b54a;}.cls-5{fill:#fff;stroke:#fff;stroke-width:2px;}.cls-5,.cls-6{stroke-linecap:round;stroke-linejoin:round;}.cls-6{fill:url(#New_Gradient_Swatch_28);stroke:url(#New_Gradient_Swatch_30);}.cls-7{fill:#2c98bc;}</style><linearGradient id="New_Gradient_Swatch_28" x1="23.25" y1="20.11" x2="15.58" y2="12.43" gradientUnits="userSpaceOnUse"><stop offset="0" stop-color="#fff"/><stop offset="1" stop-color="#78d2f7"/></linearGradient><linearGradient id="New_Gradient_Swatch_30" x1="23.61" y1="20.46" x2="15.22" y2="12.08" gradientUnits="userSpaceOnUse"><stop offset="0" stop-color="#46f2ff"/><stop offset="1" stop-color="#5fc1ff"/></linearGradient></defs><title>hum_soil</title><g id="Layer_2" data-name="Layer 2"><g id="Layer_2-2" data-name="Layer 2"><rect class="cls-1" width="32" height="32"/><path class="cls-2" d="M4.26,15.45a11.74,11.74,0,0,0,23.48,0Z"/><path class="cls-3" d="M8.44,15.61s-2.25-4.38,1-7.56c2.64-2.56,5-2,5.68-3.77a7.61,7.61,0,0,1,.12,6.33c-1.37,2.8-5.84,3.23-5.84,3.23a5,5,0,0,1,2.37-4C8.81,10.46,8.44,15.61,8.44,15.61Z"/><path class="cls-4" d="M8.35,8.28a6.11,6.11,0,0,0-1.41-1.8A6.34,6.34,0,0,1,8.83,7.75a7.33,7.33,0,0,1,1.26-1.07,5.56,5.56,0,0,0-.48-.79C7.9,3.52,6,3.62,5.69,2.14a6.12,6.12,0,0,0-1,4.95A5.14,5.14,0,0,0,7.34,10,6.89,6.89,0,0,1,8.35,8.28Z"/><path class="cls-5" d="M24.32,17a4.91,4.91,0,1,1-9.81,0c0-2.71,4.91-8.41,4.91-8.41S24.32,14.3,24.32,17Z"/><path class="cls-6" d="M24.32,17a4.91,4.91,0,1,1-9.81,0c0-2.71,4.91-8.41,4.91-8.41S24.32,14.3,24.32,17Z"/><polygon class="cls-7" points="21.86 14.35 18.11 18.89 16.97 18.89 20.72 14.35 21.86 14.35"/><path class="cls-7" d="M18.85,14a1.44,1.44,0,0,0-1.05-.44,1.51,1.51,0,1,0,0,3,1.44,1.44,0,0,0,1.05-.44,1.53,1.53,0,0,0,0-2.13Zm-.47,1.65a.83.83,0,0,1-1.17,0A.78.78,0,0,1,17,15a.83.83,0,1,1,1.65,0A.78.78,0,0,1,18.38,15.6Z"/><path class="cls-7" d="M22.1,17.26a1.51,1.51,0,1,0,.44,1.06A1.47,1.47,0,0,0,22.1,17.26Zm-.48,1.65a.83.83,0,0,1-1.41-.59.78.78,0,0,1,.24-.58.83.83,0,0,1,1.17,0,.78.78,0,0,1,.24.58A.81.81,0,0,1,21.62,18.91Z"/></g></g></svg>