<svg xmlns="http://www.w3.org/2000/svg" xmlns:xlink="http://www.w3.org/1999/xlink" viewBox="0 0 32 32"><defs><style>.cls-1,.cls-5{fill:none;}.cls-2{fill:#73c63f;}.cls-3{fill:#39b54a;}.cls-4{fill:#414956;}.cls-5{stroke-linecap:round;stroke-linejoin:round;stroke:url(#linear-gradient);}.cls-6{fill:#2c98bc;}</style><linearGradient id="linear-gradient" x1="21.56" y1="-3413.4" x2="13.17" y2="-3405.02" gradientTransform="matrix(1, 0, 0, -1, 0, -3389.89)" gradientUnits="userSpaceOnUse"><stop offset="0" stop-color="#46f2ff"/><stop offset="1" stop-color="#5fc1ff"/></linearGradient></defs><title>hum_soil</title><g id="Layer_2" data-name="Layer 2"><g id="Layer_2-2" data-name="Layer 2"><g id="Layer_2-3" data-name="Layer 2"><g id="Layer_2-2-2" data-name="Layer 2-2"><rect class="cls-1" width="32" height="32"/><path class="cls-2" d="M6.44,18.61s-2.25-4.38,1-7.56c2.64-2.56,5-2,5.68-3.77a7.6,7.6,0,0,1,.12,6.33c-1.37,2.8-5.84,3.23-5.84,3.23a5,5,0,0,1,2.37-4C6.81,13.46,6.44,18.61,6.44,18.61Z"/><path class="cls-3" d="M6.35,11.28a6.15,6.15,0,0,0-1.41-1.8,6.54,6.54,0,0,1,1.89,1.27A7.59,7.59,0,0,1,8.09,9.68a5.73,5.73,0,0,0-.48-.79C5.9,6.52,4,6.62,3.69,5.14a6.14,6.14,0,0,0-1,5A5.16,5.16,0,0,0,5.34,13,6.76,6.76,0,0,1,6.35,11.28Z"/><path class="cls-4" d="M23,18.45A4.84,4.84,0,0,1,23.32,20a5.93,5.93,0,0,1-5.64,6.15h-.27a5.91,5.91,0,0,1-5.9-5.64,4.86,4.86,0,0,1,0-.54,4.92,4.92,0,0,1,.3-1.5H2.26a11.74,11.74,0,0,0,23.48,0Z"/><path class="cls-5" d="M22.32,20a4.91,4.91,0,1,1-9.81.44,3.23,3.23,0,0,1,0-.44c0-2.71,4.91-8.41,4.91-8.41S22.32,17.3,22.32,20Z"/><polygon class="cls-6" points="19.86 17.35 16.11 21.89 14.97 21.89 18.72 17.35 19.86 17.35"/><path class="cls-6" d="M16.85,17a1.46,1.46,0,0,0-1.05-.44,1.51,1.51,0,0,0-.35,3,2,2,0,0,0,.35,0,1.46,1.46,0,0,0,1.05-.44,1.52,1.52,0,0,0,0-2.13Zm-.47,1.65a.83.83,0,0,1-1.17,0A.77.77,0,0,1,15,18a.83.83,0,1,1,1.65-.18.54.54,0,0,1,0,.18.8.8,0,0,1-.27.6Z"/><path class="cls-6" d="M20.1,20.26a1.51,1.51,0,1,0,0,2.14,1.56,1.56,0,0,0,.44-1.08A1.5,1.5,0,0,0,20.1,20.26Zm-.48,1.65a.83.83,0,0,1-1.17,0,.84.84,0,0,1-.24-.58.78.78,0,0,1,.24-.58.83.83,0,0,1,1.17,0,.78.78,0,0,1,.24.58A.82.82,0,0,1,19.62,21.91Z"/></g></g></g></g></svg>