<svg xmlns="http://www.w3.org/2000/svg" xmlns:xlink="http://www.w3.org/1999/xlink" viewBox="0 0 32.49 32"><defs><style>.cls-1,.cls-4,.cls-5,.cls-6{stroke-linecap:round;stroke-linejoin:round;}.cls-1{fill:url(#New_Gradient_Swatch_1);stroke:url(#linear-gradient);}.cls-2{fill:#ccc;stroke-miterlimit:10;}.cls-2,.cls-4{stroke:gray;}.cls-3{fill:#fff;}.cls-4,.cls-5,.cls-6,.cls-8{fill:none;}.cls-5{stroke:#ccc;stroke-width:2px;}.cls-6{stroke:#f14950;}.cls-7{fill:#f14950;}</style><linearGradient id="New_Gradient_Swatch_1" x1="27.42" y1="13.18" x2="17.68" y2="3.44" gradientTransform="matrix(-1, 0, 0, 1, 43.57, 0)" gradientUnits="userSpaceOnUse"><stop offset="0" stop-color="#fff"/><stop offset="1" stop-color="#78d2f7"/></linearGradient><linearGradient id="linear-gradient" x1="27.77" y1="13.53" x2="17.33" y2="3.08" gradientTransform="matrix(-1, 0, 0, 1, 43.57, 0)" gradientUnits="userSpaceOnUse"><stop offset="0" stop-color="#46f2ff"/><stop offset="1" stop-color="#5fc1ff"/></linearGradient></defs><title>press_out</title><g id="Layer_2" data-name="Layer 2"><g id="Layer_2-2" data-name="Layer 2"><path class="cls-1" d="M15.89,5.1h.29A5.26,5.26,0,0,1,26.57,6.3a2.18,2.18,0,0,1,0,.25,2.51,2.51,0,0,1-.15,5H15.89a3.24,3.24,0,1,1,0-6.47Z"/><circle class="cls-2" cx="10.79" cy="14" r="8.86"/><path class="cls-3" d="M10.77,7.52A6.94,6.94,0,0,0,4,14.66H17.49A6.94,6.94,0,0,0,10.77,7.52Z"/><path class="cls-4" d="M21.21,14.55H17.37q0-.3,0-.6A6.61,6.61,0,0,0,4.18,14q0,.3,0,.6H.5"/><polyline class="cls-4" points="15.39 16.43 15.39 17.65 5.76 17.65 5.76 16.43"/><line class="cls-4" x1="14.23" y1="19.75" x2="9.99" y2="19.75"/><line class="cls-5" x1="7.52" y1="19.75" x2="6.94" y2="19.75"/><line class="cls-4" x1="7.52" y1="19.75" x2="6.94" y2="19.75"/><line class="cls-6" x1="10.58" y1="14.66" x2="7.81" y2="10.59"/><circle class="cls-7" cx="10.58" cy="14.66" r="1.34"/><rect class="cls-8" x="0.49" width="32" height="32"/></g></g></svg>