<svg xmlns="http://www.w3.org/2000/svg" viewBox="0 0 32 32"><defs><style>.cls-1{fill:#c9c9c9;stroke-miterlimit:10;}.cls-1,.cls-3{stroke:#5a6580;stroke-width:1.2px;}.cls-2{fill:#fff;}.cls-3,.cls-4,.cls-6{fill:none;}.cls-3,.cls-4{stroke-linecap:round;stroke-linejoin:round;}.cls-4{stroke:#ee4950;stroke-width:2px;}.cls-5{fill:#ee4950;}</style></defs><title>pressure_light</title><g id="Layer_2" data-name="Layer 2"><g id="Layer_2-2" data-name="Layer 2"><g id="Layer_2-3" data-name="Layer 2"><circle class="cls-1" cx="14.22" cy="17.81" r="11.15"/><path class="cls-2" d="M14.19,9.66a8.73,8.73,0,0,0-8.46,9H22.66A8.73,8.73,0,0,0,14.19,9.66Z"/><path class="cls-3" d="M27.33,18.5H22.5c0-.25,0-.5,0-.75a8.32,8.32,0,1,0-16.64,0c0,.25,0,.5,0,.75H1.27"/><polyline class="cls-3" points="20.01 20.88 20.01 22.4 7.89 22.4 7.89 20.88"/><line class="cls-3" x1="18.54" y1="25.04" x2="13.22" y2="25.04"/><line class="cls-3" x1="10.77" y1="25.04" x2="8.55" y2="25.04"/><line class="cls-4" x1="13.95" y1="18.64" x2="10.47" y2="13.52"/><circle class="cls-5" cx="13.95" cy="18.64" r="1.69"/><rect class="cls-6" width="32" height="32"/></g></g></g></svg>