<svg xmlns="http://www.w3.org/2000/svg" xmlns:xlink="http://www.w3.org/1999/xlink" viewBox="0 0 57 57"><defs><style>.cls-1,.cls-4,.cls-5,.cls-6{stroke-linecap:round;stroke-linejoin:round;}.cls-1,.cls-2,.cls-4,.cls-5,.cls-6{stroke-width:2px;}.cls-1{fill:url(#New_Gradient_Swatch_13);stroke:url(#linear-gradient);}.cls-2{fill:#ccc;stroke-miterlimit:10;}.cls-2,.cls-4{stroke:gray;}.cls-3{fill:#fff;}.cls-4,.cls-5,.cls-6,.cls-8{fill:none;}.cls-5{stroke:#ccc;}.cls-6{stroke:#f14950;}.cls-7{fill:#f14950;}</style><linearGradient id="New_Gradient_Swatch_13" x1="38.9" y1="30.16" x2="22.6" y2="13.85" gradientUnits="userSpaceOnUse"><stop offset="0" stop-color="#fff"/><stop offset="1" stop-color="#78d2f7"/></linearGradient><linearGradient id="linear-gradient" x1="39.61" y1="30.86" x2="21.89" y2="13.15" gradientUnits="userSpaceOnUse"><stop offset="0" stop-color="#46f2ff"/><stop offset="1" stop-color="#5fc1ff"/></linearGradient></defs><title>pressure_out</title><g id="Layer_2" data-name="Layer 2"><g id="Layer_2-2" data-name="Layer 2"><path class="cls-1" d="M39.35,16.63l-.49,0a8.81,8.81,0,0,0-17.4,2c0,.14,0,.27,0,.41a4.21,4.21,0,0,0,.26,8.41H39.35a5.42,5.42,0,1,0,0-10.84Z"/><circle class="cls-2" cx="18.44" cy="30.28" r="13.96"/><path class="cls-3" d="M18.41,20.08c-5.85,0-10.6,5-10.6,11.25H29C29,25.11,24.26,20.08,18.41,20.08Z"/><path class="cls-4" d="M34.85,31.15h-6c0-.32,0-.63,0-.95A10.41,10.41,0,1,0,8,30.2c0,.32,0,.63.05.95H2.23"/><polyline class="cls-4" points="25.69 34.12 25.69 36.03 10.52 36.03 10.52 34.12"/><line class="cls-4" x1="23.85" y1="39.33" x2="17.19" y2="39.33"/><line class="cls-5" x1="13.29" y1="39.33" x2="12.38" y2="39.33"/><line class="cls-4" x1="13.29" y1="39.33" x2="12.38" y2="39.33"/><line class="cls-6" x1="18.1" y1="31.33" x2="13.75" y2="24.91"/><circle class="cls-7" cx="18.1" cy="31.33" r="2.11"/><rect class="cls-8" width="57" height="57"/></g></g></svg>