<svg xmlns="http://www.w3.org/2000/svg" xmlns:xlink="http://www.w3.org/1999/xlink" viewBox="0 0 33.95 32"><defs><style>.cls-1{fill:url(#linear-gradient);}.cls-2{fill:#111b2d;}.cls-3,.cls-4,.cls-5,.cls-7{fill:none;}.cls-3,.cls-4{stroke:#fff;}.cls-3{stroke-miterlimit:10;}.cls-4,.cls-5{stroke-linecap:round;stroke-linejoin:round;}.cls-5{stroke:#f14950;}.cls-6{fill:#f14950;}</style><linearGradient id="linear-gradient" x1="32" y1="15.79" x2="19.56" y2="3.35" gradientUnits="userSpaceOnUse"><stop offset="0" stop-color="#46efff"/><stop offset="1" stop-color="#5fbeff"/></linearGradient></defs><title>pressure_out</title><g id="Layer_2" data-name="Layer 2"><g id="Layer_2-2" data-name="Layer 2"><g id="Layer_2-3" data-name="Layer 2"><path class="cls-1" d="M29.61,7.54a6.86,6.86,0,0,0-13.1,0,11.06,11.06,0,0,1,1.17.27,5.66,5.66,0,0,1,10.89.52.58.58,0,0,0,.64.46l.29,0a3.26,3.26,0,1,1,0,6.51H24.82a9.42,9.42,0,0,1,.23,1.2H29.5a4.45,4.45,0,0,0,.11-8.9Z"/><g id="Layer_2-2-2" data-name="Layer 2-2"><circle class="cls-2" cx="14.3" cy="17.81" r="11.15"/><circle class="cls-3" cx="14.3" cy="17.81" r="8.86"/><path class="cls-4" d="M24.72,18.36H20.88v-.6a6.61,6.61,0,0,0-13.22,0v.6H4"/><polyline class="cls-4" points="18.9 20.25 18.9 21.46 9.27 21.46 9.27 20.25"/><line class="cls-4" x1="17.73" y1="23.56" x2="13.5" y2="23.56"/><line class="cls-4" x1="11.03" y1="23.56" x2="10.45" y2="23.56"/><line class="cls-5" x1="14.08" y1="18.48" x2="11.32" y2="14.4"/><circle class="cls-6" cx="14.08" cy="18.48" r="1.34"/><rect class="cls-7" width="32" height="32"/></g></g></g></g></svg>