<svg xmlns="http://www.w3.org/2000/svg" viewBox="0 0 57 57"><defs><style>.cls-1{fill:#ccc;stroke-miterlimit:10;}.cls-1,.cls-3{stroke:gray;}.cls-1,.cls-3,.cls-4,.cls-5{stroke-width:2px;}.cls-2{fill:#fff;}.cls-3,.cls-4,.cls-5,.cls-7{fill:none;}.cls-3,.cls-4,.cls-5{stroke-linecap:round;stroke-linejoin:round;}.cls-4{stroke:#ccc;}.cls-5{stroke:#f14950;}.cls-6{fill:#f14950;}</style></defs><title>pressure</title><g id="Layer_2" data-name="Layer 2"><g id="Layer_2-2" data-name="Layer 2"><circle class="cls-1" cx="18.44" cy="30.28" r="13.96"/><path class="cls-2" d="M18.41,20.08c-5.85,0-10.6,5-10.6,11.25H29C29,25.11,24.26,20.08,18.41,20.08Z"/><path class="cls-3" d="M34.85,31.15h-6c0-.32,0-.63,0-.95A10.41,10.41,0,1,0,8,30.2c0,.32,0,.63.05.95H2.23"/><polyline class="cls-3" points="25.69 34.12 25.69 36.03 10.52 36.03 10.52 34.12"/><line class="cls-3" x1="23.85" y1="39.33" x2="17.19" y2="39.33"/><line class="cls-4" x1="13.29" y1="39.33" x2="12.38" y2="39.33"/><line class="cls-3" x1="13.29" y1="39.33" x2="12.38" y2="39.33"/><line class="cls-5" x1="18.1" y1="31.33" x2="13.75" y2="24.91"/><circle class="cls-6" cx="18.1" cy="31.33" r="2.11"/><rect class="cls-7" width="57" height="57"/></g></g></svg>