<svg xmlns="http://www.w3.org/2000/svg" viewBox="0 0 32 32"><defs><style>.cls-1{fill:#ccc;stroke-miterlimit:10;}.cls-1,.cls-3{stroke:gray;}.cls-2{fill:#fff;}.cls-3,.cls-4,.cls-5,.cls-7{fill:none;}.cls-3,.cls-4,.cls-5{stroke-linecap:round;stroke-linejoin:round;}.cls-4{stroke:#ccc;stroke-width:2px;}.cls-5{stroke:#f14950;}.cls-6{fill:#f14950;}</style></defs><title>press_07_02</title><g id="Layer_2" data-name="Layer 2"><g id="Layer_2-2" data-name="Layer 2"><circle class="cls-1" cx="14.3" cy="17.81" r="8.86"/><path class="cls-2" d="M14.28,11.34a6.94,6.94,0,0,0-6.73,7.14H21A6.94,6.94,0,0,0,14.28,11.34Z"/><path class="cls-3" d="M24.72,18.36H20.88c0-.2,0-.4,0-.6a6.61,6.61,0,0,0-13.22,0q0,.3,0,.6H4"/><polyline class="cls-3" points="18.9 20.25 18.9 21.46 9.27 21.46 9.27 20.25"/><line class="cls-3" x1="17.73" y1="23.56" x2="13.5" y2="23.56"/><line class="cls-4" x1="11.03" y1="23.56" x2="10.45" y2="23.56"/><line class="cls-3" x1="11.03" y1="23.56" x2="10.45" y2="23.56"/><line class="cls-5" x1="14.08" y1="18.48" x2="11.32" y2="14.4"/><circle class="cls-6" cx="14.08" cy="18.48" r="1.34"/><rect class="cls-7" width="32" height="32"/></g></g></svg>