<svg xmlns="http://www.w3.org/2000/svg" viewBox="0 0 40.52 40.52"><defs><style>.cls-1,.cls-4,.cls-5,.cls-7{fill:none;}.cls-1{stroke:#0080ff;}.cls-1,.cls-4,.cls-5{stroke-linecap:round;stroke-linejoin:round;}.cls-1,.cls-2,.cls-4{stroke-width:1.2px;}.cls-2{fill:#c9c9c9;stroke-miterlimit:10;}.cls-2,.cls-4{stroke:#5a6580;}.cls-3{fill:#fff;}.cls-5{stroke:#ee4950;stroke-width:2px;}.cls-6{fill:#ee4950;}</style></defs><title>pressure_out_light</title><g id="Layer_2" data-name="Layer 2"><g id="Layer_2-2" data-name="Layer 2"><path class="cls-1" d="M28,11.82l-.34,0a6.27,6.27,0,0,0-12.38,1.42c0,.09,0,.19,0,.29a3,3,0,0,0,.18,6H28a3.86,3.86,0,1,0,0-7.71Z"/><circle class="cls-2" cx="13.11" cy="21.53" r="9.92"/><path class="cls-3" d="M13.09,14.27a7.78,7.78,0,0,0-7.54,8H20.62A7.78,7.78,0,0,0,13.09,14.27Z"/><path class="cls-4" d="M24.78,22.14h-4.3c0-.22,0-.44,0-.67a7.4,7.4,0,0,0-14.8,0c0,.23,0,.45,0,.67H1.58"/><polyline class="cls-4" points="18.26 24.25 18.26 25.61 7.48 25.61 7.48 24.25"/><line class="cls-4" x1="16.96" y1="27.96" x2="12.22" y2="27.96"/><line class="cls-4" x1="10.04" y1="27.96" x2="8.06" y2="27.96"/><line class="cls-5" x1="12.87" y1="22.27" x2="9.78" y2="17.71"/><circle class="cls-6" cx="12.87" cy="22.27" r="1.5"/><rect class="cls-7" width="40.52" height="40.52"/></g></g></svg>