<svg xmlns="http://www.w3.org/2000/svg" viewBox="0 0 32 32"><defs><style>.cls-1,.cls-2{fill:#fcc062;stroke:#fcc062;stroke-linecap:round;stroke-linejoin:round;}.cls-2{stroke-width:0.5px;}.cls-3{fill:none;}</style></defs><title>sun_sensor_2</title><g id="Layer_2" data-name="Layer 2"><g id="Layer_2-2" data-name="Layer 2"><path class="cls-1" d="M21.34,16,18.1,14.08a7.22,7.22,0,0,1,0,3.84Z"/><path class="cls-2" d="M11,8.66a7.66,7.66,0,0,1,1.92.26L11,5.68,9.1,8.92A7.54,7.54,0,0,1,11,8.66Z"/><path class="cls-2" d="M17.38,12.35l.94-3.65-3.65.94A7.34,7.34,0,0,1,17.38,12.35Z"/><path class="cls-2" d="M7.37,9.64,3.72,8.7l.94,3.65A7.34,7.34,0,0,1,7.37,9.64Z"/><path class="cls-1" d="M11,23.34a7.54,7.54,0,0,1-1.92-.26L11,26.32l1.92-3.24A7.66,7.66,0,0,1,11,23.34Z"/><path class="cls-1" d="M14.67,22.36l3.65.94-.94-3.65A7.34,7.34,0,0,1,14.67,22.36Z"/><path class="cls-2" d="M4.66,19.65,3.72,23.3l3.65-.94A7.34,7.34,0,0,1,4.66,19.65Z"/><path class="cls-2" d="M3.68,16a7.18,7.18,0,0,1,.26-1.92L.7,16l3.24,1.92A7.18,7.18,0,0,1,3.68,16Z"/><circle class="cls-1" cx="11.02" cy="16" r="4.92"/><rect class="cls-3" width="32" height="32"/></g></g></svg>