<svg xmlns="http://www.w3.org/2000/svg" viewBox="0 0 32 32"><defs><style>.cls-1,.cls-3{fill:#fcc062;}.cls-1{stroke:#fcc062;stroke-width:0.4px;}.cls-1,.cls-2,.cls-3,.cls-4,.cls-5{stroke-linecap:round;stroke-linejoin:round;}.cls-2{fill:#fff;}.cls-2,.cls-3,.cls-4,.cls-5{stroke:gray;}.cls-4{fill:#a9ebff;}.cls-5,.cls-6{fill:none;}</style></defs><title>sun_sensor_1</title><g id="Layer_2" data-name="Layer 2"><g id="Layer_2-2" data-name="Layer 2"><path class="cls-1" d="M24.55,10.51,22.61,9.37a4.14,4.14,0,0,1,0,2.28Z"/><path class="cls-1" d="M18.39,6.13a4.37,4.37,0,0,1,1.15.16L18.39,4.35,17.25,6.29A4.3,4.3,0,0,1,18.39,6.13Z"/><path class="cls-1" d="M22.19,8.33l.56-2.17-2.18.55A4.49,4.49,0,0,1,22.19,8.33Z"/><path class="cls-1" d="M16.21,6.71,14,6.16l.56,2.17A4.39,4.39,0,0,1,16.21,6.71Z"/><path class="cls-1" d="M18.39,14.89a4.3,4.3,0,0,1-1.14-.16l1.14,1.94,1.15-1.94A4.37,4.37,0,0,1,18.39,14.89Z"/><path class="cls-1" d="M20.57,14.3l2.18.56-.56-2.17A4.39,4.39,0,0,1,20.57,14.3Z"/><path class="cls-1" d="M14.6,12.69,14,14.86l2.17-.56A4.29,4.29,0,0,1,14.6,12.69Z"/><path class="cls-1" d="M14,10.51a4.24,4.24,0,0,1,.16-1.14l-1.94,1.14,1.94,1.14A4.24,4.24,0,0,1,14,10.51Z"/><circle class="cls-1" cx="18.39" cy="10.51" r="2.94"/><rect class="cls-2" x="2.84" y="15.32" width="15.72" height="10.54"/><polyline class="cls-3" points="4.24 12.76 0.71 16.29 20.73 16.29 10.72 6.28 6.93 10.06"/><rect class="cls-4" x="8.09" y="18.25" width="5.21" height="5.21"/><polygon class="cls-5" points="20.73 16.29 10.72 6.28 6.8 10.2 6.8 7.5 4.43 7.5 4.43 12.57 0.71 16.29 20.73 16.29"/><rect class="cls-6" width="32" height="32"/></g></g></svg>