<svg xmlns="http://www.w3.org/2000/svg" viewBox="0 0 32 32"><defs><style>.cls-1{fill:#f5b05a;}.cls-2,.cls-3{fill:none;}.cls-2{stroke:#5684e2;stroke-linecap:round;stroke-linejoin:round;}</style></defs><title>sun_house</title><g id="Layer_2" data-name="Layer 2"><g id="Layer_2-2" data-name="Layer 2"><path class="cls-1" d="M24.55,10.51,22.61,9.37a4.14,4.14,0,0,1,0,2.28Z"/><path class="cls-1" d="M18.39,6.13a4.37,4.37,0,0,1,1.15.16L18.39,4.35,17.25,6.29A4.3,4.3,0,0,1,18.39,6.13Z"/><path class="cls-1" d="M22.19,8.33l.56-2.17-2.18.55A4.49,4.49,0,0,1,22.19,8.33Z"/><path class="cls-1" d="M16.21,6.71,14,6.16l.56,2.17A4.39,4.39,0,0,1,16.21,6.71Z"/><path class="cls-1" d="M20.57,14.3l2.18.56-.56-2.17A4.39,4.39,0,0,1,20.57,14.3Z"/><polyline class="cls-2" points="18.56 16.29 18.56 25.86 2.84 25.86 2.84 16.29"/><rect class="cls-2" x="8.09" y="18.25" width="5.21" height="5.21"/><polygon class="cls-2" points="20.73 16.29 10.72 6.28 6.8 10.2 6.8 7.5 4.43 7.5 4.43 12.57 0.71 16.29 20.73 16.29"/><path class="cls-1" d="M16.09,10.94a2,2,0,0,1,0-.43,2.35,2.35,0,1,1,2.34,2.34,1.93,1.93,0,0,1-.42,0l1,1A3.34,3.34,0,1,0,15.1,10Z"/><rect class="cls-3" width="32" height="32"/></g></g></svg>