<svg xmlns="http://www.w3.org/2000/svg" viewBox="0 0 32 32"><defs><style>.cls-1,.cls-6{fill:none;}.cls-2,.cls-4{fill:#fcc062;}.cls-2{stroke:#fcc062;stroke-width:0.4px;}.cls-2,.cls-3,.cls-4,.cls-5,.cls-6{stroke-linecap:round;stroke-linejoin:round;}.cls-3{fill:#fff;}.cls-3,.cls-4,.cls-5,.cls-6{stroke:gray;}.cls-5{fill:#a9ebff;}</style></defs><title>sun_house_1</title><g id="Layer_2" data-name="Layer 2"><g id="Layer_2-2" data-name="Layer 2"><rect class="cls-1" width="32" height="32"/><path class="cls-2" d="M27.92,10.51,26,9.37a4.41,4.41,0,0,1,0,2.28Z"/><path class="cls-2" d="M21.76,6.13a4.37,4.37,0,0,1,1.15.16L21.76,4.35,20.62,6.29A4.3,4.3,0,0,1,21.76,6.13Z"/><path class="cls-2" d="M25.56,8.33l.56-2.17-2.18.55A4.49,4.49,0,0,1,25.56,8.33Z"/><path class="cls-2" d="M19.58,6.71l-2.17-.55L18,8.33A4.39,4.39,0,0,1,19.58,6.71Z"/><path class="cls-2" d="M21.76,14.89a4.3,4.3,0,0,1-1.14-.16l1.14,1.94,1.15-1.94A4.37,4.37,0,0,1,21.76,14.89Z"/><path class="cls-2" d="M23.94,14.3l2.18.56-.56-2.17A4.39,4.39,0,0,1,23.94,14.3Z"/><path class="cls-2" d="M18,12.69l-.56,2.17,2.17-.56A4.29,4.29,0,0,1,18,12.69Z"/><path class="cls-2" d="M17.38,10.51a4.24,4.24,0,0,1,.16-1.14L15.6,10.51l1.94,1.14A4.24,4.24,0,0,1,17.38,10.51Z"/><circle class="cls-2" cx="21.76" cy="10.51" r="2.94"/><rect class="cls-3" x="6.21" y="15.32" width="15.72" height="10.54"/><polyline class="cls-4" points="7.61 12.76 4.08 16.29 24.11 16.29 14.09 6.28 10.3 10.06"/><rect class="cls-5" x="11.46" y="18.25" width="5.21" height="5.21"/><polygon class="cls-6" points="24.11 16.29 14.09 6.28 10.17 10.2 10.17 7.5 7.8 7.5 7.8 12.57 4.08 16.29 24.11 16.29"/></g></g></svg>