<svg xmlns="http://www.w3.org/2000/svg" viewBox="0 0 32 32"><defs><style>.cls-1{fill:#5684e2;}.cls-2{fill:#ee4941;}.cls-3{fill:none;}</style></defs><title>temp_in</title><g id="Layer_2" data-name="Layer 2"><g id="Layer_2-2" data-name="Layer 2"><path class="cls-1" d="M18.73,26.81H3.25a.57.57,0,0,1-.57-.57V16.82a.57.57,0,0,1,.57-.58.58.58,0,0,1,.57.58v8.85H18.15V16.82a.58.58,0,1,1,1.15,0v9.42A.58.58,0,0,1,18.73,26.81Z"/><path class="cls-1" d="M10.89,24.46H5.76a.57.57,0,0,1-.57-.57V18.75a.57.57,0,0,1,.57-.57h5.13a.58.58,0,0,1,.57.57v5.14A.58.58,0,0,1,10.89,24.46ZM6.33,23.31h4v-4h-4Z"/><path class="cls-1" d="M13.16,16.25H2.53l2.69-2.69a.57.57,0,0,0,.17-.41V8.74H6.57v2.08a.55.55,0,0,0,.36.53.57.57,0,0,0,.62-.12L11,7.77l2.15,2.15V8.3L11.41,6.55a.59.59,0,0,0-.8,0L7.72,9.44V8.17a.58.58,0,0,0-.58-.58H4.82a.58.58,0,0,0-.58.58v4.75L.75,16.41A.57.57,0,0,0,.62,17a.58.58,0,0,0,.53.35h12Z"/><path class="cls-1" d="M21.27,16.41,17,12.1v1.62l2.53,2.53H17v1.14h3.91A.58.58,0,0,0,21.4,17,.57.57,0,0,0,21.27,16.41Z"/><rect class="cls-2" x="14.27" y="7.86" width="1.57" height="14.63" rx="0.74" ry="0.74"/><circle class="cls-2" cx="15.06" cy="21.65" r="1.9"/><rect class="cls-3" width="32" height="32"/></g></g></svg>