<svg xmlns="http://www.w3.org/2000/svg" xmlns:xlink="http://www.w3.org/1999/xlink" viewBox="0 0 32 32"><defs><style>.cls-1{fill:#f5b05a;}.cls-2{stroke-linecap:round;stroke-linejoin:round;fill:url(#New_Gradient_Swatch_28);stroke:url(#linear-gradient);}.cls-3{fill:#fff;}.cls-4{fill:#f14950;}.cls-5{fill:none;}</style><linearGradient id="New_Gradient_Swatch_28" x1="23.77" y1="26.71" x2="12.9" y2="15.83" gradientUnits="userSpaceOnUse"><stop offset="0" stop-color="#fff"/><stop offset="1" stop-color="#78d2f7"/></linearGradient><linearGradient id="linear-gradient" x1="24.13" y1="27.06" x2="12.55" y2="15.48" gradientUnits="userSpaceOnUse"><stop offset="0" stop-color="#46f2ff"/><stop offset="1" stop-color="#5fc1ff"/></linearGradient></defs><title>temp_out_1</title><g id="Layer_2" data-name="Layer 2"><g id="Layer_2-2" data-name="Layer 2"><path class="cls-1" d="M12,10.29a5.74,5.74,0,0,1,1.55.21L12,7.88,10.48,10.5A5.63,5.63,0,0,1,12,10.29Z"/><path class="cls-1" d="M17.17,13.27l.76-2.95L15,11.08A5.9,5.9,0,0,1,17.17,13.27Z"/><path class="cls-1" d="M9.08,11.08l-2.95-.76.76,2.95A5.9,5.9,0,0,1,9.08,11.08Z"/><path class="cls-1" d="M6.89,19.17l-.76,2.95,3-.76A5.9,5.9,0,0,1,6.89,19.17Z"/><path class="cls-1" d="M6.1,16.22a5.63,5.63,0,0,1,.21-1.55L3.69,16.22l2.62,1.55A5.69,5.69,0,0,1,6.1,16.22Z"/><path class="cls-1" d="M9.57,19.91a3.27,3.27,0,0,1,.67-.67A3.51,3.51,0,0,1,12,12.7a3.45,3.45,0,0,1,2.25.84,7,7,0,0,1,.83-.5,4.43,4.43,0,1,0-5.54,6.87Z"/><path class="cls-2" d="M24.07,17.68l-.32,0A5.88,5.88,0,0,0,12.14,19c0,.09,0,.18,0,.27a2.81,2.81,0,0,0,.17,5.61H24.07a3.62,3.62,0,1,0,0-7.23Z"/><polygon class="cls-3" points="23.77 20.78 19.85 20.78 19.85 6.79 23.77 10.71 23.77 20.78"/><circle class="cls-3" cx="21.81" cy="20.63" r="3.32"/><rect class="cls-4" x="21" y="6.43" width="1.62" height="15.06" rx="0.76" ry="0.76"/><circle class="cls-4" cx="21.81" cy="20.63" r="1.96"/><g id="Layer_2-3" data-name="Layer 2"><g id="Layer_2-2-2" data-name="Layer 2-2"><g id="New_Symbol_5" data-name="New Symbol 5"><rect class="cls-5" width="32" height="32"/></g></g></g></g></g></svg>