<svg xmlns="http://www.w3.org/2000/svg" viewBox="0 0 32 32"><defs><style>.cls-1{fill:gray;}.cls-2{fill:none;}.cls-3{fill:#fff;}.cls-4{fill:#f14950;}</style></defs><title>just_temperature</title><g id="Layer_2" data-name="Layer 2"><g id="Layer_2-2" data-name="Layer 2"><path class="cls-1" d="M11.26,8.94h.2V7.88c0-.28,0-.51,0-.67a.86.86,0,0,1,.13-.41.76.76,0,0,1,.29-.3.92.92,0,0,1,.43-.11.85.85,0,0,1,.61.25.73.73,0,0,1,.23.41,3.9,3.9,0,0,1,.05.69v1.2h.64a.81.81,0,0,1,.57.18.58.58,0,0,1,.2.45.51.51,0,0,1-.28.5,1.88,1.88,0,0,1-.8.14h-.33v3.24a5.06,5.06,0,0,0,0,.63.66.66,0,0,0,.15.36.55.55,0,0,0,.41.14,2.87,2.87,0,0,0,.42-.05,2,2,0,0,1,.41-.06.57.57,0,0,1,.39.17.61.61,0,0,1,.17.42.73.73,0,0,1-.47.66,3.13,3.13,0,0,1-1.33.22,2.25,2.25,0,0,1-1.25-.28,1.26,1.26,0,0,1-.56-.76,5.19,5.19,0,0,1-.13-1.31V10.21h-.23a.87.87,0,0,1-.59-.18.61.61,0,0,1-.2-.46.55.55,0,0,1,.21-.45A.92.92,0,0,1,11.26,8.94Z"/><path class="cls-1" d="M19.31,9.39a2.37,2.37,0,0,1-.15.85,1.82,1.82,0,0,1-1.06,1.09,2.24,2.24,0,0,1-.84.15,2.21,2.21,0,0,1-.84-.15,1.83,1.83,0,0,1-.65-.44,1.72,1.72,0,0,1-.41-.66,2.47,2.47,0,0,1-.14-.84,2.52,2.52,0,0,1,.14-.85,2,2,0,0,1,.41-.67,1.82,1.82,0,0,1,.65-.42,2.43,2.43,0,0,1,1.68,0,1.94,1.94,0,0,1,.65.43,1.88,1.88,0,0,1,.41.66A2.34,2.34,0,0,1,19.31,9.39Zm-1,0a1.57,1.57,0,0,0-.27-1,.91.91,0,0,0-.74-.35.88.88,0,0,0-.53.16,1,1,0,0,0-.36.46,1.92,1.92,0,0,0-.12.71,1.86,1.86,0,0,0,.12.7,1,1,0,0,0,.35.46A1,1,0,0,0,18,10.36,1.55,1.55,0,0,0,18.27,9.39Z"/><rect class="cls-2" width="32" height="32"/><path class="cls-3" d="M5.72,26A3.39,3.39,0,0,1,5,25.9a3.76,3.76,0,0,1-1.73-6.59V7.38A1.35,1.35,0,0,1,4.63,6H6.81A1.35,1.35,0,0,1,8.15,7.38V19.31A3.77,3.77,0,0,1,5.72,26Z"/><path class="cls-1" d="M6.81,6.53a.84.84,0,0,1,.84.85V19.55a3.28,3.28,0,1,1-3.86,0V7.38a.85.85,0,0,1,.84-.85H6.81m0-1H4.63A1.85,1.85,0,0,0,2.79,7.38V19.09a4.28,4.28,0,1,0,5.86,0V7.38A1.84,1.84,0,0,0,6.81,5.53Z"/><rect class="cls-4" x="4.92" y="8.18" width="1.6" height="14.86" rx="0.8" ry="0.8"/><circle class="cls-4" cx="5.72" cy="22.19" r="1.93"/></g></g></svg>