<svg xmlns="http://www.w3.org/2000/svg" xmlns:xlink="http://www.w3.org/1999/xlink" viewBox="0 0 32 32"><defs><style>.cls-1{fill:#f5b05a;}.cls-2{fill:url(#linear-gradient);}.cls-3{fill:#ee4950;}.cls-4{fill:none;}</style><linearGradient id="linear-gradient" x1="20.9" y1="26.96" x2="9.16" y2="15.22" gradientUnits="userSpaceOnUse"><stop offset="0" stop-color="#46efff"/><stop offset="1" stop-color="#5fbeff"/></linearGradient></defs><title>temp_out</title><g id="Layer_2" data-name="Layer 2"><g id="Layer_2-2" data-name="Layer 2"><path class="cls-1" d="M8.72,10.29a5.63,5.63,0,0,1,1.55.21L8.72,7.88,7.17,10.5A5.69,5.69,0,0,1,8.72,10.29Z"/><path class="cls-1" d="M13.86,13.27l.76-2.95-2.95.76A5.9,5.9,0,0,1,13.86,13.27Z"/><path class="cls-1" d="M5.77,11.08l-2.95-.76.76,2.95A5.9,5.9,0,0,1,5.77,11.08Z"/><path class="cls-1" d="M3.58,19.17l-.76,2.95,2.95-.76A5.9,5.9,0,0,1,3.58,19.17Z"/><path class="cls-1" d="M2.79,16.22A6,6,0,0,1,3,14.67L.38,16.22,3,17.77A6.1,6.1,0,0,1,2.79,16.22Z"/><path class="cls-1" d="M6.27,19.91a3,3,0,0,1,.67-.67,3.51,3.51,0,1,1,4-5.7,6.91,6.91,0,0,1,.82-.5,4.43,4.43,0,1,0-5.53,6.87Z"/><path class="cls-2" d="M20.9,16.92a7.07,7.07,0,0,0-.4-1V18h0a3.1,3.1,0,1,1,.28,6.18H9a2.28,2.28,0,0,1-.14-4.56.55.55,0,0,0,.52-.57V19s0-.09,0-.14a5.38,5.38,0,0,1,7.23-5.06V12.63a6.21,6.21,0,0,0-1.84-.28,6.49,6.49,0,0,0-6.48,6.28A3.38,3.38,0,0,0,9,25.31H20.81a4.2,4.2,0,0,0,.09-8.39Z"/><rect class="cls-3" x="17.71" y="6.12" width="1.63" height="15.19" rx="0.81" ry="0.81"/><circle class="cls-3" cx="18.53" cy="20.45" r="1.98"/><g id="Layer_2-3" data-name="Layer 2"><g id="Layer_2-2-2" data-name="Layer 2-2"><g id="New_Symbol_5" data-name="New Symbol 5"><rect class="cls-4" width="32" height="32"/></g></g></g></g></g></svg>