<svg xmlns="http://www.w3.org/2000/svg" viewBox="0 0 32 32"><defs><style>.cls-1{fill:none;}.cls-2{fill:#754c24;}.cls-3{fill:#fff;}.cls-4{fill:gray;}.cls-5{fill:#f14950;}.cls-6{fill:#73c63f;}.cls-7{fill:#39b54a;}</style></defs><title>temp_soil_1</title><g id="Layer_2" data-name="Layer 2"><g id="Layer_2-2" data-name="Layer 2"><rect class="cls-1" width="32" height="32"/><path class="cls-2" d="M4.26,15.45a11.74,11.74,0,0,0,23.48,0Z"/><path class="cls-3" d="M20.31,23.37a4.14,4.14,0,0,1-.7-.06,3.79,3.79,0,0,1-3-2.89,3.75,3.75,0,0,1,1.26-3.7V4.78a1.34,1.34,0,0,1,1.34-1.34H21.4a1.34,1.34,0,0,1,1.34,1.34V16.72a3.71,3.71,0,0,1,1.35,2.87,3.77,3.77,0,0,1-3.78,3.78Z"/><path class="cls-4" d="M21.4,3.94a.85.85,0,0,1,.84.84V17a3.27,3.27,0,0,1-1.93,5.91,4.18,4.18,0,0,1-.61-.05A3.27,3.27,0,0,1,18.38,17V4.78a.85.85,0,0,1,.84-.84H21.4m0-1H19.22a1.85,1.85,0,0,0-1.84,1.84V16.49a4.28,4.28,0,1,0,5.86,0V4.78A1.84,1.84,0,0,0,21.4,2.94Z"/><rect class="cls-5" x="19.51" y="5.58" width="1.6" height="14.86" rx="0.8" ry="0.8"/><circle class="cls-5" cx="20.31" cy="19.59" r="1.93"/><path class="cls-6" d="M8.44,15.61s-2.25-4.38,1-7.56c2.64-2.56,5-2,5.68-3.77a7.61,7.61,0,0,1,.12,6.33c-1.37,2.8-5.84,3.23-5.84,3.23a5,5,0,0,1,2.37-4C8.81,10.46,8.44,15.61,8.44,15.61Z"/><path class="cls-7" d="M8.35,8.28a6.11,6.11,0,0,0-1.41-1.8A6.34,6.34,0,0,1,8.83,7.75a7.33,7.33,0,0,1,1.26-1.07,5.56,5.56,0,0,0-.48-.79C7.9,3.52,6,3.62,5.69,2.14a6.12,6.12,0,0,0-1,4.95A5.14,5.14,0,0,0,7.34,10,6.89,6.89,0,0,1,8.35,8.28Z"/></g></g></svg>