<svg xmlns="http://www.w3.org/2000/svg" xmlns:xlink="http://www.w3.org/1999/xlink" viewBox="0 0 32 32"><defs><style>.cls-1,.cls-2,.cls-5{fill:none;}.cls-1{stroke:#5684e2;}.cls-1,.cls-2{stroke-linecap:round;stroke-linejoin:round;stroke-width:1.2px;}.cls-2{stroke:url(#New_Gradient_Swatch_12);}.cls-3{fill:#2c95b9;}.cls-4{fill:#5684e2;}</style><linearGradient id="New_Gradient_Swatch_12" x1="27.28" y1="22.09" x2="17.93" y2="12.74" gradientUnits="userSpaceOnUse"><stop offset="0" stop-color="#46efff"/><stop offset="1" stop-color="#5fbeff"/></linearGradient></defs><title>hum_in</title><g id="Layer_2" data-name="Layer 2"><g id="Layer_2-2" data-name="Layer 2"><rect class="cls-1" x="9.2" y="18.24" width="5.18" height="5.18"/><path class="cls-2" d="M28,18.23a5.44,5.44,0,0,1-10.87,0c0-3,5.43-9.32,5.43-9.32S28,15.23,28,18.23Z"/><polygon class="cls-3" points="25.32 15.29 21.16 20.31 19.89 20.31 24.05 15.29 25.32 15.29"/><path class="cls-3" d="M22,14.84a1.59,1.59,0,0,0-1.17-.48,1.66,1.66,0,1,0,0,3.32A1.59,1.59,0,0,0,22,17.2a1.69,1.69,0,0,0,0-2.36Zm-.52,1.83a.92.92,0,1,1,.27-.65A.89.89,0,0,1,21.46,16.67Z"/><path class="cls-3" d="M25.57,18.51A1.56,1.56,0,0,0,24.4,18a1.6,1.6,0,0,0-1.18.49,1.62,1.62,0,0,0-.49,1.17,1.64,1.64,0,0,0,.49,1.18,1.6,1.6,0,0,0,1.18.49,1.56,1.56,0,0,0,1.17-.49,1.6,1.6,0,0,0,.49-1.18A1.58,1.58,0,0,0,25.57,18.51Zm-.52,1.82a.89.89,0,0,1-.65.27.92.92,0,0,1-.92-.92.89.89,0,0,1,.27-.65.91.91,0,0,1,.65-.26.92.92,0,0,1,.65.26.88.88,0,0,1,.26.65A.87.87,0,0,1,25.05,20.33Z"/><path class="cls-4" d="M16.35,15.71H5.94L8.65,13a.58.58,0,0,0,.17-.41V8.13H10v2.1a.58.58,0,0,0,1,.41L14.5,7.15l4.31,4.3.68-.95L14.91,5.92a.59.59,0,0,0-.82,0L11.17,8.84V7.55A.57.57,0,0,0,10.6,7H8.24a.58.58,0,0,0-.57.58v4.8L4.13,15.88a.58.58,0,0,0,.41,1h11.4A10,10,0,0,1,16.35,15.71Z"/><path class="cls-4" d="M22.6,25.11a6.4,6.4,0,0,1-.88-.07v.19H7.24V16.4a.58.58,0,0,0-1.16,0v9.41a.58.58,0,0,0,.58.57H22.3a.58.58,0,0,0,.57-.57v-.72Z"/><rect class="cls-5" width="32" height="32"/></g></g></svg>