<svg xmlns="http://www.w3.org/2000/svg" xmlns:xlink="http://www.w3.org/1999/xlink" viewBox="0 0 32 32"><defs><style>.cls-1,.cls-2{fill:none;}.cls-2{stroke-linecap:round;stroke-linejoin:round;stroke-width:1.2px;stroke:url(#linear-gradient);}.cls-3{fill:#2c95b9;}</style><linearGradient id="linear-gradient" x1="19.91" y1="26.62" x2="4.84" y2="11.54" gradientUnits="userSpaceOnUse"><stop offset="0" stop-color="#46efff"/><stop offset="1" stop-color="#5fbeff"/></linearGradient></defs><title>hum_out</title><g id="Layer_2" data-name="Layer 2"><g id="Layer_2-2" data-name="Layer 2"><rect class="cls-1" width="32" height="32"/><path class="cls-2" d="M19.88,14.39l-.43,0A7.69,7.69,0,0,0,4.26,16.15c0,.12,0,.24,0,.36a3.67,3.67,0,0,0,.23,7.34H19.88a4.73,4.73,0,0,0,0-9.46Z"/><path class="cls-3" d="M12.24,15.4a1.85,1.85,0,0,1-.54,1.33,1.8,1.8,0,0,1-1.32.55,1.88,1.88,0,0,1-1.33-3.21,1.8,1.8,0,0,1,1.33-.55,1.77,1.77,0,0,1,1.32.55A1.83,1.83,0,0,1,12.24,15.4Zm4-1.81L9.93,21.31H8.5l6.33-7.72ZM11.42,15.4a1,1,0,0,0-1.77-.74,1,1,0,0,0-.3.74,1,1,0,0,0,.3.73,1,1,0,0,0,1.46,0A1,1,0,0,0,11.42,15.4Zm4.89,4.14a1.78,1.78,0,0,1-.55,1.32,1.81,1.81,0,0,1-1.33.56,1.91,1.91,0,0,1-1.88-1.88,1.81,1.81,0,0,1,.56-1.33,1.78,1.78,0,0,1,1.32-.55,1.88,1.88,0,0,1,1.88,1.88Zm-.84,0a1,1,0,1,0-.3.73A1,1,0,0,0,15.47,19.54Z"/></g></g></svg>