<svg xmlns="http://www.w3.org/2000/svg" viewBox="0 0 32 32"><defs><style>.cls-1{fill:#f5b05a;}.cls-2,.cls-3{fill:none;}.cls-2{stroke:#5684e2;stroke-linecap:round;stroke-linejoin:round;}</style></defs><title>sun_house</title><g id="Layer_2" data-name="Layer 2"><g id="Layer_2-2" data-name="Layer 2"><path class="cls-1" d="M27.92,10.51,26,9.37a4.41,4.41,0,0,1,0,2.28Z"/><path class="cls-1" d="M21.76,6.13a4.37,4.37,0,0,1,1.15.16L21.76,4.35,20.62,6.29A4.3,4.3,0,0,1,21.76,6.13Z"/><path class="cls-1" d="M25.56,8.33l.56-2.17-2.18.55A4.49,4.49,0,0,1,25.56,8.33Z"/><path class="cls-1" d="M19.58,6.71l-2.17-.55L18,8.33A4.39,4.39,0,0,1,19.58,6.71Z"/><path class="cls-1" d="M23.94,14.3l2.18.56-.56-2.17A4.39,4.39,0,0,1,23.94,14.3Z"/><polyline class="cls-2" points="21.93 16.29 21.93 25.86 6.21 25.86 6.21 16.29"/><rect class="cls-2" x="11.46" y="18.25" width="5.21" height="5.21"/><polygon class="cls-2" points="24.11 16.29 14.09 6.28 10.17 10.2 10.17 7.5 7.8 7.5 7.8 12.57 4.08 16.29 24.11 16.29"/><path class="cls-1" d="M19.46,10.94a2,2,0,0,1,0-.43,2.35,2.35,0,1,1,2.34,2.34,1.93,1.93,0,0,1-.42,0l1,1A3.34,3.34,0,1,0,18.47,10Z"/><rect class="cls-3" width="32" height="32"/></g></g></svg>