<svg xmlns="http://www.w3.org/2000/svg" viewBox="0 0 32 32"><defs><style>.cls-1{fill:#786fac;}.cls-2{fill:none;}.cls-3{fill:#ee4941;}</style></defs><title>temp</title><g id="Layer_2" data-name="Layer 2"><g id="Layer_2-2" data-name="Layer 2"><g id="Layer_2-3" data-name="Layer 2"><g id="Layer_2-2-2" data-name="Layer 2-2"><path class="cls-1" d="M15.26,8.94h.2V7.21a.83.83,0,0,1,.13-.41.76.76,0,0,1,.29-.3.92.92,0,0,1,.43-.11.86.86,0,0,1,.61.25.73.73,0,0,1,.23.41,4,4,0,0,1,0,.69v1.2h.64a.83.83,0,0,1,.57.18.59.59,0,0,1,.2.45.5.5,0,0,1-.28.5,2,2,0,0,1-.8.14h-.33v3.24q0,.32,0,.63a.61.61,0,0,0,.15.36.56.56,0,0,0,.41.14,3,3,0,0,0,.42-.05,2.7,2.7,0,0,1,.41-.06.56.56,0,0,1,.39.17.59.59,0,0,1,.17.42.72.72,0,0,1-.47.66,3.19,3.19,0,0,1-1.33.22,2.28,2.28,0,0,1-1.25-.28,1.24,1.24,0,0,1-.56-.76,5.25,5.25,0,0,1-.13-1.31V10.21h-.23a.9.9,0,0,1-.59-.18.63.63,0,0,1-.2-.46.54.54,0,0,1,.21-.45A.91.91,0,0,1,15.26,8.94Z"/><path class="cls-1" d="M23.31,9.39a2.45,2.45,0,0,1-.15.85,1.81,1.81,0,0,1-1.06,1.09,2.4,2.4,0,0,1-.84.15,2.19,2.19,0,0,1-.84-.15,1.83,1.83,0,0,1-.65-.44,1.63,1.63,0,0,1-.41-.66,2.64,2.64,0,0,1-.14-.84,2.45,2.45,0,0,1,.14-.85,1.92,1.92,0,0,1,.41-.67,1.87,1.87,0,0,1,.65-.42,2.43,2.43,0,0,1,1.68,0,2,2,0,0,1,.65.43,1.88,1.88,0,0,1,.41.66A2.45,2.45,0,0,1,23.31,9.39Zm-1,0a1.55,1.55,0,0,0-.27-1A.9.9,0,0,0,21.3,8a.83.83,0,0,0-.53.16,1,1,0,0,0-.36.46,1.93,1.93,0,0,0-.12.71,1.84,1.84,0,0,0,.12.7,1.05,1.05,0,0,0,.35.46A1,1,0,0,0,22,10.36a1.52,1.52,0,0,0,.27-1Z"/><rect class="cls-2" width="32" height="32"/><path class="cls-1" d="M10.81,6.53a.85.85,0,0,1,.84.84h0V19.55a3.28,3.28,0,1,1-3.86,0V7.38a.85.85,0,0,1,.84-.85h2.18m0-1H8.63A1.85,1.85,0,0,0,6.79,7.38V19.09a4.28,4.28,0,1,0,6.05.19,1.7,1.7,0,0,0-.19-.19V7.38a1.84,1.84,0,0,0-1.83-1.85Z"/><path class="cls-3" d="M9.72,8.18h0a.8.8,0,0,1,.8.8V22.24a.8.8,0,0,1-.8.8h0a.8.8,0,0,1-.8-.8V9A.8.8,0,0,1,9.72,8.18Z"/><circle class="cls-3" cx="9.72" cy="22.19" r="1.93"/></g></g></g></g></svg>