<svg xmlns="http://www.w3.org/2000/svg" viewBox="0 0 32 32"><defs><style>.cls-1{fill:none;}.cls-2{fill:#f14950;}.cls-3{fill:#73c63f;}.cls-4{fill:#39b54a;}.cls-5{fill:#414956;}</style></defs><title>temp_soil</title><g id="Layer_2" data-name="Layer 2"><g id="Layer_2-2" data-name="Layer 2"><g id="Layer_2-3" data-name="Layer 2"><g id="Layer_2-2-2" data-name="Layer 2-2"><rect class="cls-1" width="32" height="32"/><rect class="cls-2" x="19.51" y="5.58" width="1.6" height="14.86" rx="0.8" ry="0.8"/><circle class="cls-2" cx="20.31" cy="19.59" r="1.93"/><path class="cls-3" d="M8.44,15.61s-2.25-4.38,1-7.56c2.64-2.56,5-2,5.68-3.77a7.6,7.6,0,0,1,.12,6.33c-1.37,2.8-5.84,3.23-5.84,3.23a5,5,0,0,1,2.37-4C8.81,10.46,8.44,15.61,8.44,15.61Z"/><path class="cls-4" d="M8.35,8.28a6.15,6.15,0,0,0-1.41-1.8A6.54,6.54,0,0,1,8.83,7.75a7.59,7.59,0,0,1,1.26-1.07,5.73,5.73,0,0,0-.48-.79C7.9,3.52,6,3.62,5.69,2.14a6.14,6.14,0,0,0-1,5A5.16,5.16,0,0,0,7.34,10,6.76,6.76,0,0,1,8.35,8.28Z"/><path class="cls-5" d="M23.24,15.45h-1V17a3.24,3.24,0,0,1,1.35,2.63,3.28,3.28,0,0,1-3.28,3.28,4.18,4.18,0,0,1-.61-.05A3.27,3.27,0,0,1,17.09,19a3.23,3.23,0,0,1,1.29-2V15.45H4.26a11.74,11.74,0,0,0,23.48,0Z"/></g></g></g></g></svg>