<svg xmlns="http://www.w3.org/2000/svg" viewBox="0 0 32 32"><defs><style>.cls-1{fill:none;}.cls-2{fill:#f14950;}.cls-3{fill:#73c63f;}.cls-4{fill:#39b54a;}</style></defs><title>temp_soil</title><g id="Layer_2" data-name="Layer 2"><g id="Layer_2-2" data-name="Layer 2"><g id="Layer_2-3" data-name="Layer 2"><g id="Layer_2-2-2" data-name="Layer 2-2"><rect class="cls-1" width="32" height="32"/><rect class="cls-2" x="17.51" y="8.58" width="1.6" height="14.86" rx="0.8" ry="0.8"/><circle class="cls-2" cx="18.31" cy="22.59" r="1.93"/><path class="cls-3" d="M6.44,18.61s-2.25-4.38,1-7.56c2.64-2.56,5-2,5.68-3.77a7.6,7.6,0,0,1,.12,6.33c-1.37,2.8-5.84,3.23-5.84,3.23a5,5,0,0,1,2.37-4C6.81,13.46,6.44,18.61,6.44,18.61Z"/><path class="cls-4" d="M6.35,11.28a6.15,6.15,0,0,0-1.41-1.8,6.54,6.54,0,0,1,1.89,1.27A7.59,7.59,0,0,1,8.09,9.68a5.73,5.73,0,0,0-.48-.79C5.9,6.52,4,6.62,3.69,5.14a6.14,6.14,0,0,0-1,5A5.16,5.16,0,0,0,5.34,13,6.76,6.76,0,0,1,6.35,11.28Z"/></g></g></g></g></svg>