<svg xmlns="http://www.w3.org/2000/svg" xmlns:xlink="http://www.w3.org/1999/xlink" viewBox="0 0 32 32"><defs><style>.cls-1{fill:#f5b05a;}.cls-2{fill:url(#linear-gradient);}.cls-3{fill:#ee4950;}.cls-4{fill:none;}</style><linearGradient id="linear-gradient" x1="24.2" y1="26.96" x2="12.46" y2="15.22" gradientUnits="userSpaceOnUse"><stop offset="0" stop-color="#46efff"/><stop offset="1" stop-color="#5fbeff"/></linearGradient></defs><title>temp_out</title><g id="Layer_2" data-name="Layer 2"><g id="Layer_2-2" data-name="Layer 2"><path class="cls-1" d="M12,10.29a5.74,5.74,0,0,1,1.55.21L12,7.88,10.48,10.5A5.63,5.63,0,0,1,12,10.29Z"/><path class="cls-1" d="M17.17,13.27l.76-2.95L15,11.08A5.9,5.9,0,0,1,17.17,13.27Z"/><path class="cls-1" d="M9.08,11.08l-2.95-.76.76,2.95A5.9,5.9,0,0,1,9.08,11.08Z"/><path class="cls-1" d="M6.89,19.17l-.76,2.95,3-.76A5.9,5.9,0,0,1,6.89,19.17Z"/><path class="cls-1" d="M6.1,16.22a5.63,5.63,0,0,1,.21-1.55L3.69,16.22l2.62,1.55A5.69,5.69,0,0,1,6.1,16.22Z"/><path class="cls-1" d="M9.57,19.91a3.27,3.27,0,0,1,.67-.67A3.51,3.51,0,0,1,12,12.7a3.45,3.45,0,0,1,2.25.84,7,7,0,0,1,.83-.5,4.43,4.43,0,1,0-5.54,6.87Z"/><path class="cls-2" d="M24.21,16.92a7.07,7.07,0,0,0-.4-1V18h0a3.1,3.1,0,1,1,.28,6.18H12.27a2.28,2.28,0,0,1-.14-4.56.54.54,0,0,0,.51-.57V19a.66.66,0,0,1,0-.14,5.38,5.38,0,0,1,7.23-5.06V12.63A6.26,6.26,0,0,0,18,12.35a6.48,6.48,0,0,0-6.48,6.28,3.38,3.38,0,0,0,.73,6.68H24.12a4.2,4.2,0,0,0,.09-8.39Z"/><rect class="cls-3" x="21.02" y="6.12" width="1.63" height="15.19" rx="0.81" ry="0.81"/><circle class="cls-3" cx="21.83" cy="20.45" r="1.98"/><g id="Layer_2-3" data-name="Layer 2"><g id="Layer_2-2-2" data-name="Layer 2-2"><g id="New_Symbol_5" data-name="New Symbol 5"><rect class="cls-4" width="32" height="32"/></g></g></g></g></g></svg>