<svg xmlns="http://www.w3.org/2000/svg" viewBox="0 0 60 60"><defs><style>.cls-1,.cls-3{fill:none;}.cls-2{fill:#5684e2;}.cls-3{stroke:#5684e2;stroke-miterlimit:10;stroke-width:2px;}</style></defs><title>cam.on</title><g id="Layer_2" data-name="Layer 2"><g id="Layer_2-2" data-name="Layer 2"><rect class="cls-1" width="60" height="60"/><path class="cls-2" d="M47.29,19.92a.49.49,0,0,1,.49.49V23a.5.5,0,0,1-.49.5H12.71a.5.5,0,0,1-.49-.5V20.41a.49.49,0,0,1,.49-.49H47.29m0-2H12.71a2.48,2.48,0,0,0-2.49,2.49V23a2.49,2.49,0,0,0,2.49,2.5H47.29A2.49,2.49,0,0,0,49.78,23V20.41a2.48,2.48,0,0,0-2.49-2.49Z"/><path class="cls-3" d="M12.68,24.76a17.32,17.32,0,0,0,34.64,0"/><path class="cls-3" d="M24.51,24.76H36.05a0,0,0,0,1,0,0v8.39a5.17,5.17,0,0,1-5.17,5.17H29.68a5.17,5.17,0,0,1-5.17-5.17V24.76a0,0,0,0,1,0,0Z"/><circle class="cls-2" cx="30.28" cy="31.55" r="3.6"/></g></g></svg>