<svg xmlns="http://www.w3.org/2000/svg" viewBox="0 0 60 60"><defs><style>.cls-1{fill:#111b2d;}.cls-2{fill:#0794a3;}.cls-3{fill:none;}.cls-4{fill:#414956;}</style></defs><title>door_right.open</title><g id="Layer_2" data-name="Layer 2"><g id="Layer_2-2" data-name="Layer 2"><rect class="cls-1" x="20.34" y="13.25" width="19.31" height="32.28"/><path class="cls-2" d="M38.66,14.25V44.52H21.34V14.25H38.66m2-2H19.34V46.52H40.66V12.25Z"/><rect class="cls-3" width="60" height="60" transform="translate(60 60) rotate(180)"/><polygon class="cls-2" points="26.29 18.93 39.66 13.71 39.66 45.84 26.29 51.06 26.29 18.93"/><path class="cls-2" d="M38.66,15.17v30L27.29,49.59v-30l11.37-4.44m2-2.92-15.37,6V52.52l15.37-6V12.25Z"/><ellipse class="cls-4" cx="30" cy="32.43" rx="1.06" ry="1.51"/><rect class="cls-2" x="11.22" y="44.48" width="9.42" height="2" transform="translate(31.86 90.96) rotate(180)"/><rect class="cls-2" x="39.36" y="44.48" width="9.42" height="2" transform="translate(88.14 90.96) rotate(180)"/></g></g></svg>