<svg xmlns="http://www.w3.org/2000/svg" xmlns:xlink="http://www.w3.org/1999/xlink" viewBox="0 0 60 60"><defs><style>.cls-1,.cls-2,.cls-5{fill:none;}.cls-2,.cls-3,.cls-4,.cls-5{stroke:#414956;stroke-linejoin:round;stroke-width:2px;}.cls-2,.cls-3{stroke-linecap:round;}.cls-3{fill:url(#New_Gradient_Swatch_24);}.cls-4{fill:url(#New_Gradient_Swatch_24-2);}</style><linearGradient id="New_Gradient_Swatch_24" x1="30.6" y1="16.05" x2="30.6" y2="16.05" gradientUnits="userSpaceOnUse"><stop offset="0" stop-color="#fff"/><stop offset="1" stop-color="#ffc956"/></linearGradient><linearGradient id="New_Gradient_Swatch_24-2" x1="-344.18" y1="577.02" x2="-340.58" y2="577.02" gradientTransform="translate(519.27 -446.78) rotate(15)" xlink:href="#New_Gradient_Swatch_24"/></defs><title>pump.off</title><g id="Layer_2" data-name="Layer 2"><g id="Layer_2-2" data-name="Layer 2"><rect class="cls-1" width="60" height="60"/><path class="cls-2" d="M19,32.1H14V30a6.24,6.24,0,0,1,6.23-6.22h4v5h-4A1.25,1.25,0,0,0,19,30Z"/><line class="cls-3" x1="30.6" y1="18.8" x2="30.6" y2="13.3"/><line class="cls-4" x1="41.42" y1="20.7" x2="37.01" y2="23.24"/><path class="cls-2" d="M30,12.43c4.72,0,11.62-.11,12.21,11.86s.65,14.86,3.54,18.52"/><path class="cls-2" d="M27.14,44.62h6.5a4.75,4.75,0,0,1,4.75,4.75v0a0,0,0,0,1,0,0h-16a0,0,0,0,1,0,0v0A4.75,4.75,0,0,1,27.14,44.62Z"/><path class="cls-2" d="M29.52,19.3h2.15A5.34,5.34,0,0,1,37,24.64V33.1a0,0,0,0,1,0,0H24.18a0,0,0,0,1,0,0V24.64A5.34,5.34,0,0,1,29.52,19.3Z"/><line class="cls-5" x1="26.14" y1="32.57" x2="26.14" y2="44.73"/><line class="cls-5" x1="35.06" y1="32.57" x2="35.06" y2="44.73"/></g></g></svg>